<svg width="720" height="626" viewBox="0 0 720 626" fill="none" xmlns="http://www.w3.org/2000/svg">
<rect width="720" height="626" fill="white"/>
<g clip-path="url(#clip0_1184_6321)">
<path d="M644.231 503.823H70.6858V505.397H644.231V503.823Z" fill="#3F3D56"/>
<path d="M71.0381 515.628C77.1343 515.628 82.0762 510.695 82.0762 504.611C82.0762 498.526 77.1343 493.593 71.0381 493.593C64.9419 493.593 60 498.526 60 504.611C60 510.695 64.9419 515.628 71.0381 515.628Z" fill="#3F3D56"/>
<path d="M648.962 515.628C655.058 515.628 660 510.695 660 504.611C660 498.526 655.058 493.593 648.962 493.593C642.866 493.593 637.924 498.526 637.924 504.611C637.924 510.695 642.866 515.628 648.962 515.628Z" fill="#3F3D56"/>
<path d="M382.256 504.651H157.551C155.67 504.649 153.867 503.902 152.536 502.574C151.206 501.246 150.458 499.446 150.456 497.568V117.455C150.458 115.577 151.206 113.777 152.536 112.449C153.867 111.121 155.67 110.374 157.551 110.372H382.256C384.137 110.374 385.941 111.121 387.271 112.449C388.601 113.777 389.35 115.577 389.352 117.455V497.568C389.35 499.446 388.601 501.246 387.271 502.574C385.941 503.902 384.137 504.649 382.256 504.651ZM157.551 111.946C156.088 111.948 154.685 112.529 153.651 113.561C152.616 114.594 152.034 115.994 152.032 117.455V497.568C152.034 499.029 152.616 500.429 153.651 501.462C154.685 502.494 156.088 503.075 157.551 503.077H382.256C383.719 503.075 385.122 502.494 386.157 501.462C387.191 500.429 387.773 499.029 387.775 497.568V117.455C387.773 115.994 387.191 114.594 386.157 113.561C385.122 112.529 383.719 111.948 382.256 111.946H157.551Z" fill="#3F3D56"/>
<path d="M300.653 133.195H239.155C238.946 133.195 238.745 133.112 238.597 132.965C238.449 132.817 238.366 132.617 238.366 132.408C238.366 132.199 238.449 131.999 238.597 131.852C238.745 131.704 238.946 131.621 239.155 131.621H300.653C300.862 131.621 301.062 131.704 301.21 131.852C301.358 131.999 301.441 132.199 301.441 132.408C301.441 132.617 301.358 132.817 301.21 132.965C301.062 133.112 300.862 133.195 300.653 133.195Z" fill="#3F3D56"/>
<path d="M356.237 476.32H182.781C180.9 476.318 179.097 475.571 177.766 474.243C176.436 472.915 175.688 471.115 175.686 469.237V160.739C175.688 158.861 176.436 157.061 177.766 155.733C179.097 154.405 180.9 153.658 182.781 153.656H356.237C358.119 153.658 359.922 154.405 361.253 155.733C362.583 157.061 363.331 158.861 363.333 160.739V469.237C363.331 471.115 362.583 472.915 361.253 474.243C359.922 475.571 358.119 476.318 356.237 476.32ZM182.781 155.23C181.318 155.232 179.915 155.813 178.881 156.846C177.846 157.878 177.264 159.279 177.262 160.739V469.237C177.264 470.697 177.846 472.098 178.881 473.13C179.915 474.163 181.318 474.744 182.781 474.746H356.237C357.701 474.744 359.103 474.163 360.138 473.13C361.173 472.098 361.755 470.697 361.756 469.237V160.739C361.755 159.279 361.173 157.878 360.138 156.846C359.103 155.813 357.701 155.232 356.237 155.23H182.781Z" fill="#3F3D56"/>
<path d="M391.323 191.431C390.382 191.43 389.48 191.057 388.815 190.393C388.15 189.729 387.776 188.829 387.775 187.89V172.937C387.775 171.998 388.149 171.097 388.814 170.433C389.479 169.769 390.382 169.396 391.323 169.396C392.264 169.396 393.166 169.769 393.832 170.433C394.497 171.097 394.871 171.998 394.871 172.937V187.89C394.87 188.829 394.496 189.729 393.831 190.393C393.165 191.057 392.264 191.43 391.323 191.431ZM391.323 170.969C390.8 170.97 390.299 171.177 389.93 171.546C389.56 171.915 389.352 172.415 389.352 172.937V187.89C389.352 188.411 389.559 188.912 389.929 189.281C390.299 189.65 390.8 189.857 391.323 189.857C391.846 189.857 392.347 189.65 392.717 189.281C393.086 188.912 393.294 188.411 393.294 187.89V172.937C393.293 172.415 393.086 171.915 392.716 171.546C392.347 171.177 391.845 170.97 391.323 170.969Z" fill="#3F3D56"/>
<path d="M391.323 215.828C390.382 215.827 389.48 215.453 388.815 214.789C388.15 214.125 387.776 213.225 387.775 212.286V197.333C387.775 196.394 388.149 195.493 388.814 194.829C389.479 194.165 390.382 193.792 391.323 193.792C392.264 193.792 393.166 194.165 393.832 194.829C394.497 195.493 394.871 196.394 394.871 197.333V212.286C394.87 213.225 394.496 214.125 393.831 214.789C393.165 215.453 392.264 215.827 391.323 215.828ZM391.323 195.366C390.8 195.367 390.299 195.574 389.93 195.943C389.56 196.312 389.352 196.812 389.352 197.333V212.286C389.352 212.808 389.559 213.308 389.929 213.677C390.299 214.046 390.8 214.254 391.323 214.254C391.846 214.254 392.347 214.046 392.717 213.677C393.086 213.308 393.294 212.808 393.294 212.286V197.333C393.293 196.812 393.086 196.312 392.716 195.943C392.347 195.574 391.845 195.367 391.323 195.366Z" fill="#3F3D56"/>
<path d="M328.642 277.218H210.377C209.122 277.218 207.919 276.721 207.032 275.835C206.144 274.95 205.646 273.749 205.646 272.496C205.646 271.244 206.144 270.043 207.032 269.157C207.919 268.272 209.122 267.774 210.377 267.774H328.642C329.897 267.774 331.1 268.272 331.987 269.157C332.874 270.043 333.373 271.244 333.373 272.496C333.373 273.749 332.874 274.95 331.987 275.835C331.1 276.721 329.897 277.218 328.642 277.218Z" fill="#CCCCCC"/>
<path d="M328.642 298.467H210.377C209.122 298.467 207.919 297.97 207.032 297.084C206.144 296.199 205.646 294.998 205.646 293.745C205.646 292.493 206.144 291.292 207.032 290.406C207.919 289.521 209.122 289.023 210.377 289.023H328.642C329.897 289.023 331.1 289.521 331.987 290.406C332.874 291.292 333.373 292.493 333.373 293.745C333.373 294.998 332.874 296.199 331.987 297.084C331.1 297.97 329.897 298.467 328.642 298.467Z" fill="#CCCCCC"/>
<path d="M328.642 319.716H210.377C209.122 319.716 207.919 319.219 207.032 318.333C206.144 317.448 205.646 316.247 205.646 314.994C205.646 313.742 206.144 312.541 207.032 311.655C207.919 310.77 209.122 310.272 210.377 310.272H328.642C329.897 310.272 331.1 310.77 331.987 311.655C332.874 312.541 333.373 313.742 333.373 314.994C333.373 316.247 332.874 317.448 331.987 318.333C331.1 319.219 329.897 319.716 328.642 319.716Z" fill="#CCCCCC"/>
<path d="M286.542 255.97H248.299C245.999 255.97 243.793 255.058 242.166 253.434C240.54 251.811 239.626 249.609 239.626 247.313C239.626 245.017 240.54 242.815 242.166 241.192C243.793 239.568 245.999 238.656 248.299 238.656H286.542C288.842 238.656 291.048 239.568 292.675 241.192C294.301 242.815 295.215 245.017 295.215 247.313C295.215 249.609 294.301 251.811 292.675 253.434C291.048 255.058 288.842 255.97 286.542 255.97Z" fill="#050038"/>
<path d="M233.213 391.319C229.816 391.319 226.494 390.314 223.67 388.43C220.845 386.546 218.643 383.868 217.343 380.735C216.043 377.602 215.703 374.154 216.365 370.828C217.028 367.502 218.664 364.447 221.067 362.049C223.469 359.651 226.53 358.018 229.862 357.357C233.194 356.695 236.648 357.035 239.787 358.333C242.925 359.63 245.608 361.828 247.496 364.648C249.383 367.467 250.391 370.782 250.391 374.173C250.385 378.719 248.574 383.077 245.354 386.292C242.133 389.506 237.767 391.314 233.213 391.319ZM233.213 358.832C230.173 358.832 227.202 359.732 224.674 361.418C222.147 363.103 220.177 365.499 219.013 368.303C217.85 371.106 217.546 374.19 218.139 377.166C218.732 380.142 220.196 382.876 222.345 385.021C224.495 387.167 227.233 388.628 230.215 389.22C233.196 389.812 236.286 389.508 239.095 388.347C241.903 387.185 244.303 385.219 245.992 382.696C247.681 380.174 248.582 377.208 248.582 374.173C248.582 372.159 248.185 370.164 247.412 368.303C246.64 366.441 245.508 364.75 244.081 363.325C242.654 361.901 240.959 360.771 239.095 360C237.23 359.229 235.231 358.832 233.213 358.832Z" fill="#3F3D56"/>
<path d="M233.243 380.108C232.984 380.108 232.728 380.057 232.489 379.958C232.25 379.859 232.033 379.714 231.85 379.531L225.538 373.23C225.355 373.048 225.21 372.831 225.111 372.592C225.012 372.354 224.961 372.098 224.961 371.839C224.961 371.581 225.012 371.325 225.111 371.086C225.21 370.848 225.356 370.631 225.539 370.448L225.865 370.122C226.235 369.754 226.737 369.547 227.259 369.547C227.782 369.547 228.283 369.754 228.653 370.122L231.925 373.387C232.047 373.509 232.194 373.602 232.356 373.661C232.518 373.72 232.691 373.743 232.863 373.728C233.035 373.714 233.201 373.662 233.351 373.576C233.5 373.49 233.629 373.373 233.728 373.232L247.682 353.439C247.983 353.013 248.441 352.723 248.956 352.634C249.471 352.544 250 352.663 250.428 352.963L250.808 353.229C251.019 353.378 251.2 353.567 251.338 353.785C251.477 354.003 251.571 354.247 251.615 354.501C251.659 354.756 251.653 355.017 251.596 355.269C251.54 355.521 251.434 355.759 251.285 355.971L234.856 379.273C234.69 379.508 234.476 379.704 234.226 379.847C233.977 379.99 233.699 380.076 233.413 380.1C233.356 380.106 233.299 380.108 233.243 380.108Z" fill="#050038"/>
<path d="M301.019 391.319C297.622 391.319 294.301 390.314 291.476 388.43C288.651 386.546 286.45 383.868 285.149 380.735C283.849 377.602 283.509 374.154 284.172 370.828C284.835 367.502 286.471 364.447 288.873 362.049C291.275 359.651 294.336 358.018 297.668 357.357C301 356.695 304.454 357.035 307.593 358.333C310.732 359.63 313.415 361.828 315.302 364.648C317.19 367.467 318.197 370.782 318.197 374.173C318.192 378.719 316.38 383.077 313.16 386.292C309.94 389.506 305.574 391.314 301.019 391.319ZM301.019 358.832C297.98 358.832 295.008 359.732 292.481 361.418C289.953 363.103 287.983 365.499 286.82 368.303C285.657 371.106 285.352 374.19 285.945 377.166C286.538 380.142 288.002 382.876 290.152 385.021C292.301 387.167 295.04 388.628 298.021 389.22C301.002 389.812 304.093 389.508 306.901 388.347C309.709 387.185 312.11 385.219 313.799 382.696C315.487 380.174 316.389 377.208 316.389 374.173C316.389 372.159 315.991 370.164 315.219 368.303C314.447 366.441 313.314 364.75 311.887 363.325C310.46 361.901 308.766 360.771 306.901 360C305.036 359.229 303.038 358.832 301.019 358.832Z" fill="#3F3D56"/>
<path d="M306.524 382.016H306.521C306.262 382.017 306.005 381.966 305.766 381.866C305.527 381.767 305.31 381.621 305.128 381.437L301.857 378.164C301.632 377.949 301.332 377.829 301.02 377.828C300.707 377.828 300.407 377.948 300.182 378.163L296.911 381.438C296.729 381.622 296.512 381.767 296.273 381.867C296.034 381.966 295.777 382.017 295.518 382.016H295.515C295.257 382.017 295 381.967 294.762 381.868C294.523 381.769 294.306 381.624 294.123 381.441L293.797 381.117C293.427 380.748 293.219 380.248 293.218 379.727C293.218 379.205 293.424 378.705 293.792 378.335L297.077 375.045C297.298 374.823 297.421 374.524 297.421 374.212C297.421 373.899 297.298 373.6 297.077 373.379L293.717 370.012C293.349 369.643 293.142 369.142 293.143 368.621C293.144 368.1 293.351 367.6 293.721 367.231L294.048 366.905C294.231 366.722 294.448 366.578 294.686 366.479C294.925 366.381 295.181 366.33 295.44 366.331H295.443C295.702 366.331 295.958 366.382 296.197 366.481C296.436 366.58 296.653 366.726 296.836 366.91L300.182 370.26C300.408 370.475 300.708 370.595 301.019 370.595C301.331 370.595 301.631 370.475 301.857 370.26L305.203 366.91C305.385 366.726 305.602 366.58 305.841 366.481C306.081 366.382 306.337 366.331 306.596 366.331H306.599C306.858 366.33 307.114 366.381 307.353 366.479C307.592 366.578 307.808 366.723 307.991 366.906L308.318 367.231C308.687 367.6 308.895 368.1 308.896 368.621C308.897 369.142 308.69 369.643 308.322 370.012L304.961 373.378C304.741 373.599 304.617 373.899 304.617 374.211C304.617 374.524 304.741 374.823 304.961 375.045L308.246 378.335C308.615 378.705 308.821 379.205 308.821 379.726C308.82 380.248 308.612 380.748 308.243 381.116L307.915 381.442C307.733 381.625 307.516 381.77 307.277 381.868C307.038 381.967 306.782 382.017 306.524 382.016Z" fill="#CCCCCC"/>
<path d="M534.214 494.817H544.295L549.092 456.009H534.214V494.817Z" fill="#A0616A"/>
<path d="M563.735 504.159H532.055V491.942H551.664C553.249 491.942 554.819 492.253 556.283 492.859C557.748 493.464 559.079 494.352 560.199 495.471C561.32 496.589 562.209 497.918 562.816 499.379C563.422 500.841 563.735 502.408 563.735 503.99V504.159Z" fill="#2F2E41"/>
<path d="M537.758 434.681L530.805 441.966L499.345 418.665L509.607 407.913L537.758 434.681Z" fill="#A0616A"/>
<path d="M523.636 445.31L537.162 431.138L546.024 439.564L524.173 462.46L524.051 462.343C521.733 460.139 520.387 457.107 520.309 453.912C520.232 450.718 521.428 447.623 523.636 445.31Z" fill="#2F2E41"/>
<path d="M607.92 328.358C608.559 327.333 608.964 326.182 609.108 324.984C609.252 323.786 609.132 322.571 608.754 321.425C608.377 320.279 607.753 319.229 606.925 318.349C606.098 317.47 605.087 316.783 603.965 316.335L564.389 215.657L548.962 224.877L592.926 321.462C592.298 323.394 592.402 325.489 593.218 327.35C594.034 329.21 595.506 330.708 597.354 331.558C599.203 332.408 601.299 332.551 603.246 331.962C605.194 331.372 606.857 330.09 607.92 328.358Z" fill="#A0616A"/>
<path d="M457.703 335.575C458.909 335.489 460.081 335.14 461.137 334.553C462.193 333.966 463.107 333.155 463.815 332.177C464.523 331.199 465.007 330.078 465.234 328.893C465.461 327.708 465.425 326.487 465.128 325.318L523.512 234.211L506.976 227.165L454.487 319.412C452.552 320.039 450.915 321.354 449.885 323.106C448.856 324.858 448.507 326.927 448.903 328.919C449.299 330.911 450.414 332.689 452.036 333.916C453.658 335.143 455.674 335.733 457.703 335.575Z" fill="#A0616A"/>
<path d="M563.999 318.277L553.664 471.586L528.967 469.41L523.883 356.304L510.082 404.882L480.3 407.057L492.088 311.026L563.999 318.277Z" fill="#2F2E41"/>
<path d="M505.723 397.632L510.081 404.882L540.589 425.908L518.798 437.509C518.798 437.509 476.668 414.308 480.3 407.057L505.723 397.632Z" fill="#2F2E41"/>
<path d="M585.625 256.249L577.028 232.065C575.115 226.685 572.153 221.737 568.311 217.507C564.47 213.277 559.827 209.85 554.65 207.423C543.013 203.144 530.358 202.453 518.323 205.438C517.335 205.684 516.292 205.942 515.194 206.214C506.852 208.233 499.036 212.001 492.266 217.269C486.968 221.438 482.202 226.716 481.778 232.393C481.775 232.406 481.77 232.416 481.767 232.429C480.3 238.848 479.574 272.2 479.574 272.2H492.517L490.469 317.153L490.635 316.827C490.635 316.827 565.286 330.928 565.286 323.678V277.275L566.817 260.473L585.625 256.249Z" fill="#E6E6E6"/>
<path d="M515.945 199.156C527.371 199.156 536.633 189.911 536.633 178.507C536.633 167.103 527.371 157.857 515.945 157.857C504.52 157.857 495.258 167.103 495.258 178.507C495.258 189.911 504.52 199.156 515.945 199.156Z" fill="#A0616A"/>
<path d="M514.18 169.943L496.784 169.888C494.763 169.882 492.556 169.811 491.017 168.504C488.698 166.535 489.087 162.821 490.328 160.047C493.786 152.322 502.37 147.416 510.844 147.643C519.317 147.87 527.34 152.877 531.906 160.006C536.471 167.135 537.704 176.139 535.984 184.424C533.997 180.211 530.937 176.593 527.11 173.929C523.283 171.266 518.824 169.651 514.176 169.246L514.18 169.943Z" fill="#2F2E41"/>
</g>
<defs>
<clipPath id="clip0_1184_6321">
<rect width="600" height="405.256" fill="white" transform="translate(60 110.372)"/>
</clipPath>
</defs>
</svg>
