<svg width="720" height="626" viewBox="0 0 720 626" fill="none" xmlns="http://www.w3.org/2000/svg">
<rect width="720" height="626" fill="white"/>
<g clip-path="url(#clip0_1184_6308)">
<path d="M561.481 107.66C565.583 91.3726 561.682 72.3781 548.43 61.665C548.171 79.8995 541.294 97.457 529.018 111.231C524.263 116.527 518.409 121.934 518.178 128.964C518.034 133.338 520.228 137.539 523.25 140.778C526.273 144.018 530.085 146.442 533.853 148.829L534.406 149.779C546.534 137.871 557.378 123.947 561.481 107.66Z" fill="#F0F0F0"/>
<path d="M548.163 61.9031C553.246 74.8716 554.002 89.0693 550.323 102.48C549.584 105.38 548.38 108.15 546.755 110.685C545.09 113.105 542.79 115.047 540.093 116.309C537.603 117.535 534.91 118.509 532.769 120.302C531.687 121.237 530.821 122.383 530.226 123.666C529.631 124.949 529.322 126.34 529.318 127.747C529.214 131.254 530.412 134.588 531.699 137.809C533.128 141.385 534.671 145.078 534.34 148.993C534.3 149.468 535.059 149.5 535.099 149.027C535.674 142.215 530.921 136.461 530.167 129.853C529.816 126.77 530.416 123.565 532.758 121.317C534.805 119.352 537.582 118.346 540.114 117.126C542.763 115.932 545.072 114.125 546.838 111.862C548.591 109.416 549.903 106.696 550.718 103.821C552.659 97.3761 553.547 90.6742 553.35 83.9608C553.168 76.2977 551.641 68.7212 548.835 61.5593C548.662 61.1161 547.991 61.4627 548.163 61.9031Z" fill="white"/>
<path d="M551.769 98.2293C554.164 98.5246 556.589 97.9815 558.611 96.697C560.632 95.4126 562.119 93.4703 562.806 91.2172C562.943 90.7608 562.221 90.5317 562.083 90.9887C561.448 93.0879 560.063 94.897 558.178 96.0894C556.293 97.2817 554.032 97.7788 551.803 97.4909C551.319 97.4289 551.287 98.1676 551.769 98.2293Z" fill="white"/>
<path d="M541.44 115.849C538.381 112.079 536.895 107.325 537.278 102.535C537.316 102.06 536.558 102.028 536.519 102.501C536.131 107.487 537.688 112.431 540.879 116.348C541.183 116.721 541.742 116.221 541.44 115.849Z" fill="white"/>
<path d="M552.254 76.7075C551.303 76.7812 550.348 76.6238 549.474 76.2494C548.601 75.875 547.837 75.2953 547.251 74.5624C546.952 74.1857 546.393 74.6866 546.69 75.0608C547.342 75.8676 548.187 76.5068 549.15 76.9226C550.114 77.3383 551.168 77.518 552.22 77.4459C552.319 77.4471 552.416 77.4114 552.489 77.346C552.563 77.2805 552.608 77.1902 552.616 77.0934C552.62 76.9956 552.584 76.9002 552.516 76.828C552.449 76.7557 552.354 76.7124 552.254 76.7075Z" fill="white"/>
<path d="M491.119 72.2085C491.299 72.4489 491.479 72.6893 491.657 72.9356C494.062 76.1798 496.191 79.6088 498.025 83.1887C498.171 83.4634 498.315 83.7437 498.453 84.0219C502.776 92.6925 505.408 102.069 506.216 111.675C506.533 115.498 506.551 119.339 506.27 123.164C505.882 128.447 505.029 134.145 506.415 139.099C506.554 139.617 506.725 140.127 506.929 140.625L533.172 150.363C533.243 150.356 533.312 150.354 533.384 150.348L534.413 150.783C534.442 150.587 534.467 150.383 534.496 150.186C534.513 150.072 534.524 149.956 534.541 149.843C534.551 149.766 534.56 149.689 534.573 149.621C534.577 149.595 534.58 149.57 534.581 149.55C534.594 149.482 534.598 149.416 534.609 149.354C534.754 148.213 534.892 147.069 535.021 145.922C535.023 145.916 535.023 145.916 535.019 145.908C536.089 137.177 536.091 128.353 535.026 119.622C534.99 119.362 534.957 119.096 534.91 118.831C534.358 114.937 533.481 111.092 532.286 107.337C531.625 105.282 530.857 103.262 529.986 101.283C527.725 96.1745 524.653 91.4438 520.883 87.2645C513.364 78.9341 503.193 73.0371 491.977 72.2597C491.69 72.24 491.408 72.2223 491.119 72.2085Z" fill="#F0F0F0"/>
<path d="M491.051 72.5547C503.13 79.9305 512.515 90.8236 517.872 103.687C519.076 106.436 519.827 109.353 520.097 112.33C520.265 115.238 519.629 118.137 518.257 120.725C517.027 123.164 515.478 125.519 514.879 128.206C514.593 129.586 514.61 131.009 514.928 132.382C515.247 133.755 515.86 135.047 516.727 136.173C518.814 139.034 521.832 140.994 524.852 142.811C528.205 144.829 531.72 146.873 533.878 150.193C534.139 150.595 534.765 150.177 534.504 149.775C530.75 143.999 523.396 142.19 518.708 137.357C516.52 135.101 515.018 132.19 515.497 129.023C515.916 126.253 517.511 123.823 518.778 121.364C520.155 118.859 520.881 116.063 520.892 113.221C520.778 110.24 520.144 107.3 519.016 104.527C516.58 98.2431 513.144 92.3714 508.835 87.1268C503.95 81.1146 498.045 75.9601 491.376 71.8863C490.963 71.6343 490.641 72.3044 491.051 72.5547Z" fill="white"/>
<path d="M516.397 99.4462C518.492 98.2783 520.092 96.4234 520.912 94.2129C521.732 92.0024 521.718 89.5802 520.872 87.3788C520.7 86.934 519.982 87.1742 520.154 87.6197C520.946 89.6682 520.958 91.9245 520.191 93.9814C519.423 96.0383 517.925 97.7603 515.968 98.8366C515.543 99.071 515.974 99.6793 516.397 99.4462Z" fill="white"/>
<path d="M519.047 119.569C514.274 118.351 510.147 115.426 507.49 111.377C507.227 110.976 506.601 111.394 506.864 111.795C509.636 116.003 513.937 119.038 518.908 120.295C519.382 120.415 519.519 119.688 519.047 119.569Z" fill="white"/>
<path d="M503.474 81.978C502.76 82.5944 501.9 83.0285 500.971 83.2413C500.042 83.4542 499.074 83.4391 498.152 83.1975C497.68 83.0722 497.544 83.7996 498.013 83.9241C499.032 84.1864 500.102 84.2017 501.129 83.9688C502.155 83.7358 503.108 83.2617 503.903 82.5877C503.983 82.5303 504.038 82.4452 504.057 82.3498C504.075 82.2544 504.055 82.1558 504.001 82.074C503.944 81.9935 503.857 81.9383 503.758 81.9204C503.659 81.9024 503.557 81.9231 503.474 81.978Z" fill="white"/>
<path d="M456.42 440.109C368.437 440.109 296.857 370.429 296.857 284.779C296.857 199.13 368.437 129.449 456.42 129.449C465.722 129.448 475.006 130.231 484.169 131.789C484.283 131.809 484.392 131.85 484.49 131.91C484.588 131.97 484.673 132.049 484.74 132.141C484.807 132.234 484.854 132.338 484.879 132.448C484.905 132.558 484.907 132.672 484.887 132.783C484.867 132.894 484.825 133.001 484.763 133.096C484.7 133.191 484.619 133.273 484.524 133.338C484.429 133.403 484.322 133.449 484.209 133.473C484.096 133.497 483.979 133.5 483.865 133.48C474.802 131.939 465.62 131.164 456.42 131.165C369.409 131.165 298.62 200.076 298.62 284.779C298.62 369.482 369.409 438.393 456.42 438.393C543.431 438.393 614.22 369.482 614.22 284.779C614.259 246.494 599.574 209.582 573.055 181.309C572.899 181.141 572.818 180.919 572.829 180.693C572.841 180.466 572.944 180.253 573.116 180.101C573.288 179.948 573.515 179.868 573.748 179.877C573.981 179.887 574.2 179.986 574.358 180.153C601.173 208.741 616.022 246.066 615.983 284.779C615.983 370.429 544.403 440.109 456.42 440.109Z" fill="#E4E4E4"/>
<path d="M526.775 182.721C544.211 182.721 558.345 168.962 558.345 151.989C558.345 135.016 544.211 121.257 526.775 121.257C509.34 121.257 495.206 135.016 495.206 151.989C495.206 168.962 509.34 182.721 526.775 182.721Z" fill="#050038"/>
<path d="M522.469 167.984C521.923 167.984 521.386 167.86 520.898 167.623C520.41 167.386 519.986 167.041 519.659 166.616L511.047 155.437C510.77 155.078 510.569 154.669 510.454 154.235C510.34 153.8 510.315 153.347 510.38 152.903C510.445 152.458 510.6 152.031 510.835 151.644C511.069 151.258 511.38 150.921 511.749 150.651C512.118 150.382 512.538 150.186 512.985 150.075C513.431 149.963 513.896 149.939 514.353 150.002C514.809 150.066 515.249 150.216 515.645 150.445C516.042 150.674 516.389 150.976 516.665 151.335L522.3 158.648L536.772 137.516C537.29 136.765 538.093 136.244 539.005 136.068C539.916 135.892 540.863 136.075 541.636 136.577C542.409 137.079 542.947 137.859 543.131 138.746C543.314 139.633 543.129 140.555 542.616 141.309L525.391 166.462C525.079 166.917 524.66 167.292 524.169 167.557C523.677 167.822 523.128 167.968 522.566 167.983C522.534 167.983 522.501 167.984 522.469 167.984Z" fill="white"/>
<path d="M452.315 260.674L403.632 128.831L404.866 128.399L395.913 104.149L394.678 104.582L379.731 64.1021C379.172 62.5902 378.314 61.2001 377.204 60.0113C376.093 58.8225 374.754 57.8581 373.261 57.1733C371.768 56.4886 370.151 56.0967 368.503 56.0202C366.854 55.9437 365.206 56.1841 363.653 56.7275L275.645 87.5235C274.091 88.0669 272.663 88.9028 271.442 89.9834C270.221 91.064 269.23 92.3682 268.527 93.8215C267.823 95.2748 267.421 96.8488 267.342 98.4536C267.264 100.058 267.51 101.662 268.069 103.174L278.491 131.399L276.54 132.131L283.193 148.948L284.755 148.363L286.136 152.104L284.474 152.727L291.127 169.545L292.4 169.068L340.653 299.746C341.209 301.26 342.066 302.652 343.175 303.842C344.285 305.033 345.625 305.998 347.119 306.683C348.612 307.369 350.23 307.76 351.88 307.835C353.529 307.91 355.178 307.667 356.731 307.121L444.739 276.325C447.873 275.224 450.431 272.958 451.851 270.024C453.271 267.09 453.438 263.727 452.315 260.674Z" fill="#3F3D56"/>
<path d="M352.102 302.776C350.863 302.773 349.654 302.399 348.641 301.704C347.628 301.01 346.859 300.028 346.439 298.893L273.089 100.247C272.549 98.7837 272.628 97.1717 273.308 95.7654C273.989 94.359 275.216 93.2734 276.719 92.7474L295.444 86.195L295.416 86.8328C295.368 87.9399 295.6 89.0415 296.093 90.0406C296.585 91.0397 297.322 91.9056 298.239 92.562C299.156 93.2184 300.225 93.6452 301.352 93.8047C302.478 93.9643 303.628 93.8517 304.699 93.4769L346.256 78.9353C347.259 78.4879 348.14 77.8169 348.828 76.9766C349.515 76.1363 349.989 75.1503 350.213 74.0984C350.433 73.064 350.4 71.9935 350.115 70.9741C349.83 69.9547 349.301 69.0153 348.572 68.2327L348.133 67.758L367.476 60.9893C368.979 60.4656 370.634 60.5435 372.078 61.206C373.523 61.8685 374.638 63.0616 375.18 64.5235L445.163 254.049C446.591 257.931 446.379 262.207 444.573 265.937C442.767 269.668 439.515 272.549 435.53 273.948L354.143 302.427C353.489 302.657 352.798 302.775 352.102 302.776Z" fill="white"/>
<path d="M344.932 161.88C358.077 161.88 368.734 151.506 368.734 138.709C368.734 125.912 358.077 115.538 344.932 115.538C331.786 115.538 321.13 125.912 321.13 138.709C321.13 151.506 331.786 161.88 344.932 161.88Z" fill="#050038"/>
<path d="M403.913 172.405L321.485 201.248C321.228 201.339 320.954 201.379 320.681 201.367C320.407 201.355 320.139 201.29 319.891 201.177C319.643 201.064 319.421 200.904 319.237 200.707C319.052 200.51 318.91 200.279 318.817 200.028C318.724 199.777 318.684 199.511 318.697 199.245C318.71 198.979 318.777 198.718 318.894 198.477C319.011 198.236 319.176 198.019 319.379 197.84C319.581 197.662 319.819 197.523 320.077 197.434L402.505 168.59C403.024 168.41 403.595 168.438 404.094 168.667C404.592 168.896 404.977 169.309 405.163 169.814C405.35 170.319 405.323 170.875 405.088 171.361C404.854 171.847 404.431 172.222 403.913 172.405Z" fill="#E6E6E6"/>
<path d="M379.435 190.693L352.322 200.18C352.065 200.271 351.791 200.311 351.518 200.299C351.244 200.286 350.976 200.222 350.728 200.108C350.48 199.995 350.258 199.835 350.074 199.638C349.89 199.441 349.747 199.21 349.655 198.96C349.562 198.709 349.521 198.443 349.534 198.176C349.547 197.91 349.614 197.649 349.731 197.408C349.848 197.167 350.013 196.951 350.216 196.772C350.418 196.593 350.656 196.455 350.913 196.365L378.026 186.878C378.546 186.696 379.119 186.723 379.618 186.952C380.118 187.181 380.503 187.594 380.69 188.1C380.877 188.605 380.849 189.163 380.614 189.649C380.379 190.135 379.955 190.511 379.435 190.693Z" fill="#E6E6E6"/>
<path d="M385.884 208.157L358.771 217.645C358.513 217.735 358.24 217.775 357.967 217.762C357.694 217.749 357.426 217.684 357.179 217.571C356.932 217.458 356.71 217.298 356.526 217.101C356.342 216.904 356.2 216.674 356.107 216.423C356.015 216.173 355.974 215.907 355.987 215.641C356 215.375 356.066 215.114 356.183 214.874C356.3 214.633 356.464 214.417 356.666 214.238C356.868 214.059 357.105 213.92 357.362 213.83L384.475 204.343C384.995 204.161 385.567 204.187 386.067 204.416C386.566 204.646 386.952 205.059 387.139 205.564C387.326 206.07 387.298 206.628 387.063 207.114C386.828 207.6 386.403 207.976 385.884 208.157Z" fill="#E6E6E6"/>
<path d="M389.187 217.103L362.074 226.59C361.816 226.681 361.543 226.721 361.269 226.709C360.996 226.697 360.727 226.632 360.479 226.519C360.232 226.406 360.009 226.246 359.825 226.049C359.64 225.852 359.498 225.621 359.405 225.37C359.313 225.119 359.272 224.853 359.285 224.587C359.298 224.32 359.365 224.059 359.482 223.818C359.599 223.577 359.764 223.361 359.967 223.182C360.17 223.003 360.407 222.865 360.665 222.775L387.778 213.288C388.036 213.197 388.309 213.157 388.582 213.169C388.856 213.181 389.124 213.246 389.372 213.359C389.62 213.473 389.842 213.632 390.027 213.83C390.211 214.027 390.354 214.257 390.446 214.508C390.539 214.759 390.58 215.025 390.566 215.291C390.553 215.558 390.486 215.819 390.369 216.06C390.252 216.301 390.088 216.517 389.885 216.696C389.682 216.875 389.445 217.013 389.187 217.103Z" fill="#E6E6E6"/>
<path d="M397.82 193.982L340.295 214.111C340.038 214.201 339.765 214.242 339.491 214.23C339.218 214.217 338.949 214.153 338.701 214.039C338.454 213.926 338.231 213.766 338.047 213.569C337.863 213.372 337.72 213.141 337.627 212.89C337.535 212.64 337.494 212.373 337.507 212.107C337.52 211.841 337.587 211.58 337.704 211.339C337.821 211.098 337.986 210.882 338.189 210.703C338.392 210.524 338.629 210.386 338.887 210.296L396.411 190.167C396.669 190.076 396.942 190.036 397.216 190.048C397.489 190.06 397.758 190.125 398.005 190.238C398.253 190.352 398.476 190.511 398.66 190.709C398.844 190.906 398.987 191.136 399.079 191.387C399.172 191.638 399.213 191.904 399.2 192.17C399.187 192.437 399.12 192.698 399.003 192.939C398.886 193.18 398.721 193.396 398.518 193.575C398.315 193.754 398.078 193.892 397.82 193.982Z" fill="#E6E6E6"/>
<path d="M386.233 238.817L376.388 242.262C375.505 242.571 374.532 242.525 373.683 242.135C372.834 241.746 372.179 241.044 371.862 240.184C371.544 239.324 371.59 238.377 371.99 237.55C372.39 236.724 373.11 236.085 373.993 235.776L383.838 232.331C384.721 232.022 385.694 232.068 386.543 232.458C387.392 232.847 388.047 233.549 388.365 234.409C388.682 235.269 388.636 236.216 388.236 237.043C387.837 237.87 387.116 238.508 386.233 238.817Z" fill="#050038"/>
<path d="M308.655 86.8374C309.411 86.8374 310.024 86.2407 310.024 85.5046C310.024 84.7686 309.411 84.1719 308.655 84.1719C307.899 84.1719 307.286 84.7686 307.286 85.5046C307.286 86.2407 307.899 86.8374 308.655 86.8374Z" fill="white"/>
<path d="M151.208 160.461C166.552 142.878 191.449 131.797 214.402 137.542C193.729 152.524 179.166 174.142 173.29 198.57C171.059 207.999 169.586 218.712 161.722 224.63C156.829 228.312 150.25 229.319 144.104 228.65C137.957 227.982 132.107 225.799 126.336 223.635L124.801 223.8C128.661 201.038 135.864 178.044 151.208 160.461Z" fill="#F0F0F0"/>
<path d="M214.344 138.023C195.395 142.962 178.527 153.589 166.135 168.392C163.409 171.533 161.209 175.073 159.615 178.88C158.186 182.638 157.817 186.701 158.546 190.645C159.149 194.335 160.206 198.042 159.877 201.812C159.68 203.739 159.066 205.603 158.076 207.283C157.087 208.963 155.743 210.42 154.135 211.559C150.202 214.499 145.418 215.888 140.692 217.088C135.445 218.42 129.972 219.723 125.755 223.238C125.244 223.664 124.595 222.867 125.105 222.442C132.443 216.326 142.864 216.844 151.038 212.335C154.852 210.231 158.038 206.996 158.725 202.642C159.325 198.835 158.239 195.012 157.594 191.28C156.825 187.442 157.033 183.48 158.2 179.739C159.589 175.865 161.646 172.249 164.281 169.046C170.097 161.743 177.055 155.376 184.902 150.178C193.824 144.196 203.732 139.745 214.196 137.016C214.843 136.847 214.987 137.855 214.344 138.023Z" fill="white"/>
<path d="M169.837 163.397C167.568 161.036 166.235 157.967 166.076 154.737C165.917 151.508 166.942 148.328 168.969 145.767C169.381 145.25 170.225 145.849 169.813 146.366C167.921 148.748 166.966 151.71 167.12 154.717C167.275 157.724 168.528 160.578 170.655 162.765C171.116 163.24 170.296 163.87 169.837 163.397Z" fill="white"/>
<path d="M157.986 188.812C164.77 189.091 171.412 186.871 176.589 182.594C177.101 182.17 177.751 182.967 177.239 183.391C171.843 187.831 164.926 190.128 157.868 189.823C157.195 189.793 157.317 188.783 157.986 188.812Z" fill="white"/>
<path d="M194.092 145.519C194.774 146.611 195.725 147.52 196.857 148.166C197.99 148.812 199.27 149.174 200.582 149.219C201.255 149.24 201.132 150.25 200.463 150.229C199.014 150.173 197.601 149.771 196.348 149.061C195.095 148.35 194.039 147.351 193.274 146.152C193.192 146.045 193.155 145.911 193.171 145.778C193.187 145.646 193.254 145.524 193.358 145.437C193.467 145.354 193.605 145.316 193.742 145.331C193.88 145.347 194.005 145.414 194.092 145.519Z" fill="white"/>
<path d="M248.532 208.237C248.112 208.236 247.691 208.234 247.265 208.239C241.612 208.246 235.968 208.699 230.39 209.596C229.958 209.658 229.521 209.728 229.091 209.803C215.676 212.101 202.816 216.805 191.165 223.673C186.531 226.411 182.118 229.487 177.964 232.876C172.227 237.557 166.389 243.077 159.599 245.566C158.893 245.834 158.171 246.058 157.438 246.239L125.128 225.61C125.079 225.527 125.024 225.451 124.975 225.368L123.646 224.602C123.848 224.413 124.061 224.22 124.263 224.031C124.379 223.921 124.503 223.815 124.62 223.705C124.7 223.633 124.78 223.561 124.848 223.491C124.874 223.467 124.901 223.443 124.923 223.426C124.991 223.357 125.062 223.299 125.125 223.237C126.314 222.159 127.514 221.088 128.723 220.023C128.728 220.016 128.728 220.016 128.74 220.014C137.977 211.923 147.988 204.511 158.837 198.814C159.164 198.643 159.495 198.465 159.836 198.303C164.741 195.761 169.851 193.614 175.115 191.883C178 190.945 180.933 190.149 183.901 189.499C191.574 187.833 199.468 187.353 207.294 188.076C222.896 189.518 237.849 195.802 247.782 207.348C248.036 207.643 248.283 207.934 248.532 208.237Z" fill="#F0F0F0"/>
<path d="M248.191 208.59C230.006 201.428 209.965 200.026 190.916 204.584C186.797 205.494 182.851 207.03 179.223 209.136C175.758 211.299 172.951 214.326 171.094 217.902C169.293 221.203 167.844 224.782 165.25 227.599C163.901 229.022 162.258 230.151 160.428 230.912C158.599 231.674 156.625 232.05 154.636 232.016C149.678 232.059 145 230.364 140.484 228.552C135.47 226.54 130.295 224.373 124.754 224.708C124.082 224.748 124.057 223.732 124.727 223.691C134.369 223.109 142.368 229.63 151.684 230.821C156.031 231.377 160.576 230.661 163.816 227.587C166.65 224.899 168.148 221.209 169.941 217.852C171.7 214.337 174.317 211.296 177.562 208.992C181.068 206.713 184.946 205.031 189.031 204.019C198.191 201.596 207.685 200.591 217.166 201.039C227.989 201.493 238.652 203.745 248.695 207.699C249.316 207.944 248.808 208.834 248.191 208.59Z" fill="white"/>
<path d="M196.961 202.765C196.609 199.55 197.443 196.317 199.314 193.646C201.184 190.974 203.969 189.036 207.172 188.179C207.82 188.008 208.124 188.981 207.475 189.152C204.491 189.945 201.897 191.75 200.16 194.242C198.424 196.733 197.659 199.747 198.005 202.739C198.079 203.389 197.035 203.411 196.961 202.765Z" fill="white"/>
<path d="M171.78 216.112C177.024 220.311 183.701 222.431 190.479 222.05C191.151 222.012 191.176 223.029 190.505 223.067C183.451 223.45 176.507 221.23 171.06 216.849C170.542 216.431 171.264 215.696 171.78 216.112Z" fill="white"/>
<path d="M227.384 202.706C227.254 203.978 227.45 205.261 227.955 206.44C228.46 207.62 229.258 208.659 230.278 209.464C230.802 209.875 230.079 210.609 229.558 210.201C228.436 209.306 227.556 208.158 226.995 206.856C226.434 205.554 226.209 204.138 226.34 202.732C226.341 202.598 226.394 202.47 226.488 202.373C226.583 202.276 226.712 202.218 226.849 202.211C226.987 202.208 227.121 202.258 227.221 202.351C227.321 202.444 227.38 202.571 227.384 202.706Z" fill="white"/>
<path d="M611.707 498.403C628.438 502.396 647.95 498.599 658.955 485.698C640.224 485.446 622.188 478.752 608.038 466.801C602.598 462.173 597.043 456.474 589.822 456.249C585.329 456.109 581.014 458.245 577.686 461.187C574.358 464.129 571.868 467.841 569.416 471.508L568.439 472.047C580.673 483.853 594.976 494.41 611.707 498.403Z" fill="#F0F0F0"/>
<path d="M658.71 485.439C645.388 490.387 630.804 491.123 617.028 487.542C614.048 486.822 611.204 485.65 608.599 484.068C606.113 482.447 604.118 480.208 602.821 477.583C601.562 475.159 600.562 472.537 598.72 470.453C597.76 469.4 596.583 468.557 595.265 467.978C593.947 467.399 592.518 467.097 591.072 467.093C587.469 466.993 584.044 468.158 580.736 469.411C577.062 470.803 573.269 472.304 569.247 471.983C568.76 471.944 568.726 472.682 569.213 472.721C576.21 473.281 582.121 468.654 588.909 467.92C592.076 467.578 595.368 468.163 597.677 470.442C599.696 472.436 600.73 475.138 601.983 477.603C603.209 480.182 605.065 482.43 607.39 484.149C609.903 485.855 612.697 487.132 615.65 487.926C622.271 489.816 629.155 490.68 636.051 490.488C643.923 490.311 651.706 488.825 659.063 486.093C659.519 485.924 659.163 485.271 658.71 485.439Z" fill="white"/>
<path d="M621.394 488.949C621.091 491.281 621.648 493.641 622.968 495.609C624.287 497.577 626.283 499.025 628.597 499.693C629.066 499.827 629.301 499.124 628.832 498.99C626.675 498.372 624.817 497.023 623.592 495.188C622.367 493.353 621.857 491.152 622.152 488.983C622.216 488.511 621.457 488.48 621.394 488.949Z" fill="white"/>
<path d="M603.294 478.894C607.167 475.917 612.051 474.47 616.971 474.843C617.459 474.88 617.492 474.142 617.005 474.104C611.885 473.726 606.805 475.242 602.782 478.348C602.398 478.645 602.913 479.189 603.294 478.894Z" fill="white"/>
<path d="M643.502 489.421C643.427 488.495 643.588 487.566 643.973 486.715C644.358 485.865 644.953 485.122 645.706 484.551C646.093 484.26 645.578 483.716 645.194 484.005C644.365 484.64 643.709 485.462 643.282 486.4C642.854 487.338 642.67 488.364 642.744 489.388C642.743 489.485 642.779 489.579 642.847 489.65C642.914 489.722 643.007 489.766 643.106 489.774C643.207 489.778 643.304 489.743 643.379 489.677C643.453 489.611 643.497 489.519 643.502 489.421Z" fill="white"/>
<path d="M648.124 429.908C647.877 430.084 647.63 430.259 647.377 430.432C644.044 432.773 640.522 434.846 636.844 436.631C636.562 436.773 636.274 436.913 635.989 437.047C627.082 441.256 617.449 443.818 607.582 444.604C603.655 444.913 599.709 444.931 595.78 444.658C590.353 444.279 584.499 443.449 579.411 444.799C578.878 444.934 578.355 445.101 577.843 445.299L567.84 470.846C567.847 470.915 567.848 470.982 567.855 471.052L567.408 472.054C567.61 472.082 567.82 472.107 568.021 472.134C568.138 472.151 568.257 472.162 568.374 472.179C568.453 472.188 568.532 472.197 568.602 472.21C568.628 472.213 568.655 472.216 568.675 472.217C568.745 472.23 568.812 472.234 568.876 472.245C570.049 472.386 571.224 472.519 572.402 472.645C572.408 472.647 572.408 472.647 572.416 472.644C581.385 473.685 590.449 473.687 599.419 472.65C599.686 472.616 599.959 472.584 600.231 472.537C604.232 472 608.181 471.146 612.038 469.983C614.149 469.339 616.224 468.592 618.257 467.744C623.505 465.543 628.364 462.553 632.658 458.882C641.215 451.563 647.273 441.662 648.071 430.743C648.091 430.464 648.11 430.19 648.124 429.908Z" fill="#F0F0F0"/>
<path d="M647.768 429.842C640.191 441.601 629.001 450.736 615.788 455.951C612.963 457.123 609.967 457.854 606.909 458.118C603.922 458.281 600.944 457.662 598.285 456.326C595.78 455.129 593.361 453.621 590.601 453.038C589.183 452.759 587.721 452.776 586.311 453.086C584.901 453.396 583.573 453.993 582.416 454.837C579.478 456.868 577.464 459.806 575.597 462.746C573.524 466.01 571.425 469.432 568.014 471.533C567.601 471.787 568.031 472.396 568.444 472.142C574.377 468.488 576.235 461.329 581.201 456.765C583.518 454.636 586.508 453.173 589.761 453.64C592.607 454.048 595.103 455.6 597.628 456.833C600.202 458.174 603.075 458.881 605.994 458.891C609.056 458.78 612.076 458.163 614.925 457.065C621.38 454.694 627.411 451.349 632.799 447.154C638.975 442.399 644.27 436.651 648.455 430.158C648.714 429.756 648.025 429.443 647.768 429.842Z" fill="white"/>
<path d="M620.144 454.516C621.344 456.555 623.249 458.113 625.52 458.911C627.791 459.709 630.279 459.695 632.54 458.872C632.997 458.704 632.75 458.005 632.293 458.174C630.189 458.944 627.871 458.956 625.758 458.209C623.645 457.461 621.876 456.003 620.77 454.098C620.529 453.684 619.905 454.104 620.144 454.516Z" fill="white"/>
<path d="M599.473 457.096C600.724 452.449 603.729 448.431 607.888 445.845C608.3 445.589 607.871 444.98 607.459 445.235C603.136 447.935 600.018 452.121 598.727 456.96C598.604 457.421 599.351 457.555 599.473 457.096Z" fill="white"/>
<path d="M638.088 441.935C637.455 441.24 637.009 440.403 636.791 439.499C636.572 438.595 636.587 437.652 636.836 436.755C636.964 436.295 636.217 436.163 636.089 436.619C635.82 437.612 635.804 438.653 636.043 439.652C636.283 440.652 636.77 441.579 637.462 442.353C637.521 442.431 637.608 442.485 637.706 442.503C637.804 442.52 637.906 442.501 637.99 442.449C638.072 442.393 638.129 442.308 638.147 442.212C638.166 442.116 638.145 442.016 638.088 441.935Z" fill="white"/>
<path d="M678.747 341.86L653.235 383.654L654.204 384.151L645.565 400.096L643.767 399.169L638.09 408.464L639.5 409.253L630.244 424.855L628.639 423.954L545.393 560.336C543.21 563.905 539.661 566.485 535.526 567.51C531.391 568.535 527.007 567.92 523.336 565.802L368.578 476.286C364.911 474.161 362.261 470.706 361.208 466.68C360.155 462.655 360.786 458.387 362.963 454.814L496.317 236.339C498.5 232.77 502.048 230.189 506.183 229.165C510.319 228.14 514.703 228.754 518.373 230.872L673.132 320.389C676.797 322.515 679.446 325.969 680.499 329.994C681.552 334.02 680.922 338.287 678.747 341.86Z" fill="#3F3D56"/>
<path d="M528.852 557.369L373.549 467.538C372.419 466.882 371.602 465.818 371.277 464.577C370.953 463.336 371.147 462.02 371.818 460.919L506.057 240.99C506.73 239.89 507.824 239.095 509.098 238.779C510.373 238.463 511.724 238.653 512.856 239.305L668.159 329.137C669.289 329.792 670.106 330.857 670.43 332.098C670.755 333.338 670.561 334.654 669.89 335.755L535.651 555.684C534.978 556.784 533.884 557.579 532.609 557.895C531.335 558.211 529.984 558.022 528.852 557.369Z" fill="white"/>
<path d="M592.646 280.745C593.403 280.745 594.015 280.148 594.015 279.412C594.015 278.676 593.403 278.08 592.646 278.08C591.89 278.08 591.277 278.676 591.277 279.412C591.277 280.148 591.89 280.745 592.646 280.745Z" fill="white"/>
<path d="M584.173 438.289L454.534 363.302C454.127 363.069 453.772 362.76 453.488 362.393C453.205 362.026 452.998 361.608 452.881 361.163C452.764 360.718 452.738 360.255 452.805 359.8C452.872 359.345 453.03 358.908 453.271 358.513C453.512 358.118 453.831 357.773 454.209 357.499C454.588 357.224 455.018 357.025 455.475 356.912C455.933 356.8 456.409 356.776 456.875 356.843C457.342 356.91 457.791 357.066 458.196 357.303L587.835 432.289C588.242 432.522 588.597 432.831 588.881 433.198C589.165 433.566 589.371 433.984 589.488 434.429C589.605 434.874 589.631 435.337 589.564 435.791C589.497 436.246 589.339 436.683 589.098 437.078C588.857 437.473 588.538 437.818 588.16 438.093C587.782 438.367 587.351 438.567 586.894 438.679C586.436 438.792 585.96 438.815 585.494 438.748C585.027 438.681 584.578 438.525 584.173 438.289Z" fill="#E6E6E6"/>
<path d="M532.409 426.669L489.767 402.004C489.363 401.77 489.009 401.46 488.727 401.093C488.445 400.726 488.24 400.309 488.124 399.865C488.008 399.421 487.983 398.959 488.05 398.505C488.117 398.051 488.276 397.615 488.516 397.221C488.757 396.827 489.074 396.483 489.452 396.209C489.829 395.934 490.258 395.735 490.714 395.622C491.17 395.509 491.645 395.485 492.111 395.55C492.577 395.616 493.025 395.77 493.429 396.004L536.072 420.669C536.476 420.903 536.83 421.213 537.111 421.58C537.393 421.947 537.598 422.364 537.714 422.808C537.83 423.252 537.856 423.714 537.788 424.168C537.721 424.622 537.563 425.058 537.322 425.452C537.082 425.846 536.764 426.19 536.387 426.464C536.01 426.738 535.581 426.938 535.125 427.051C534.669 427.164 534.194 427.188 533.728 427.123C533.262 427.057 532.814 426.903 532.409 426.669Z" fill="#E6E6E6"/>
<path d="M515.644 454.137L473.002 429.472C472.185 428.999 471.594 428.23 471.359 427.333C471.125 426.436 471.266 425.485 471.752 424.69C472.237 423.894 473.028 423.319 473.949 423.091C474.87 422.862 475.847 423 476.664 423.472L519.306 448.137C519.711 448.371 520.064 448.681 520.346 449.048C520.628 449.415 520.833 449.832 520.949 450.276C521.065 450.721 521.09 451.182 521.023 451.636C520.955 452.09 520.797 452.526 520.556 452.92C520.316 453.314 519.998 453.658 519.621 453.932C519.244 454.206 518.815 454.406 518.359 454.519C517.903 454.632 517.428 454.656 516.962 454.591C516.497 454.525 516.048 454.371 515.644 454.137Z" fill="#E6E6E6"/>
<path d="M507.057 468.205L464.415 443.54C464.009 443.307 463.654 442.998 463.371 442.631C463.088 442.263 462.882 441.846 462.766 441.401C462.649 440.956 462.623 440.494 462.69 440.04C462.757 439.585 462.916 439.148 463.157 438.754C463.398 438.359 463.716 438.015 464.094 437.74C464.471 437.466 464.901 437.266 465.358 437.154C465.815 437.041 466.29 437.017 466.757 437.084C467.223 437.15 467.672 437.305 468.077 437.541L510.719 462.206C511.125 462.439 511.481 462.748 511.764 463.115C512.048 463.482 512.255 463.9 512.372 464.345C512.489 464.79 512.515 465.253 512.448 465.708C512.381 466.163 512.223 466.6 511.982 466.995C511.741 467.39 511.422 467.735 511.043 468.01C510.665 468.284 510.235 468.484 509.777 468.596C509.32 468.709 508.844 468.732 508.377 468.665C507.91 468.598 507.461 468.442 507.057 468.205Z" fill="#E6E6E6"/>
<path d="M548.059 454.044L457.587 401.712C456.774 401.238 456.187 400.469 455.955 399.574C455.723 398.679 455.865 397.731 456.349 396.937C456.833 396.144 457.621 395.57 458.539 395.34C459.457 395.111 460.432 395.245 461.249 395.713L551.721 448.044C552.128 448.277 552.483 448.586 552.767 448.953C553.051 449.32 553.257 449.738 553.374 450.183C553.492 450.628 553.518 451.092 553.451 451.546C553.384 452.001 553.225 452.438 552.984 452.833C552.743 453.228 552.424 453.573 552.046 453.848C551.668 454.123 551.237 454.322 550.78 454.434C550.322 454.547 549.846 454.57 549.379 454.503C548.913 454.436 548.464 454.28 548.059 454.044Z" fill="#E6E6E6"/>
<path d="M530.815 520.923L515.332 511.967C513.944 511.162 512.941 509.854 512.544 508.33C512.146 506.805 512.386 505.19 513.211 503.838C514.037 502.486 515.379 501.509 516.944 501.12C518.51 500.731 520.169 500.963 521.559 501.765L537.042 510.72C538.432 511.524 539.437 512.833 539.836 514.358C540.234 515.883 539.994 517.5 539.169 518.852C538.343 520.205 536.999 521.183 535.432 521.572C533.866 521.96 532.205 521.726 530.815 520.923Z" fill="#050038"/>
<path d="M559.703 375.513C577.23 375.513 591.439 361.681 591.439 344.618C591.439 327.556 577.23 313.724 559.703 313.724C542.175 313.724 527.967 327.556 527.967 344.618C527.967 361.681 542.175 375.513 559.703 375.513Z" fill="#050038"/>
<path d="M39.3738 470.162H468.854V228.114C468.852 226.301 468.111 224.562 466.794 223.28C465.476 221.997 463.69 221.276 461.827 221.274H46.4007C44.5377 221.276 42.7517 221.997 41.4343 223.28C40.117 224.562 39.3759 226.301 39.3738 228.114V470.162Z" fill="#CACACA"/>
<path d="M455.585 230.734H52.6433V453.424H455.585V230.734Z" fill="white"/>
<path d="M39 463.612V493.481C39 494.72 39.2505 495.946 39.7373 497.09C40.224 498.234 40.9375 499.273 41.8369 500.149C42.7363 501.024 43.8041 501.719 44.9793 502.193C46.1544 502.667 47.414 502.91 48.686 502.91H207.204V561.858H205.098C204.933 561.858 204.769 561.889 204.617 561.951C204.464 562.012 204.325 562.103 204.208 562.216C204.092 562.33 203.999 562.465 203.936 562.614C203.872 562.762 203.84 562.922 203.84 563.082V567.182C203.84 567.343 203.872 567.503 203.936 567.651C203.999 567.8 204.091 567.935 204.208 568.049C204.325 568.162 204.464 568.253 204.617 568.314C204.769 568.376 204.933 568.407 205.098 568.407H303.504C303.669 568.407 303.833 568.376 303.985 568.314C304.138 568.253 304.277 568.162 304.394 568.049C304.51 567.935 304.603 567.8 304.666 567.651C304.73 567.503 304.762 567.343 304.762 567.182V563.082C304.762 562.922 304.73 562.762 304.666 562.614C304.603 562.465 304.51 562.33 304.394 562.216C304.277 562.103 304.138 562.012 303.985 561.951C303.833 561.889 303.669 561.858 303.504 561.858H301.398V502.91H459.916C461.188 502.91 462.448 502.667 463.623 502.193C464.798 501.719 465.866 501.024 466.765 500.149C467.664 499.273 468.378 498.234 468.865 497.09C469.351 495.946 469.602 494.72 469.602 493.481V463.612L39 463.612Z" fill="#3F3D56"/>
<path d="M397.279 305.211H206.461C205.258 305.211 204.105 304.745 203.254 303.917C202.403 303.089 201.926 301.966 201.926 300.795C201.926 299.624 202.403 298.501 203.254 297.673C204.105 296.845 205.258 296.38 206.461 296.38H397.279C398.482 296.38 399.635 296.845 400.486 297.673C401.337 298.501 401.815 299.624 401.815 300.795C401.815 301.966 401.337 303.089 400.486 303.917C399.635 304.745 398.482 305.211 397.279 305.211Z" fill="#E6E6E6"/>
<path d="M333.253 325.142H270.487C269.284 325.142 268.131 324.677 267.28 323.849C266.429 323.021 265.951 321.898 265.951 320.727C265.951 319.555 266.429 318.432 267.28 317.604C268.131 316.776 269.284 316.311 270.487 316.311H333.253C334.456 316.311 335.609 316.776 336.46 317.604C337.311 318.432 337.788 319.555 337.788 320.727C337.788 321.898 337.311 323.021 336.46 323.849C335.609 324.677 334.456 325.142 333.253 325.142Z" fill="#E6E6E6"/>
<path d="M333.253 365.572H270.487C269.284 365.572 268.131 365.107 267.28 364.279C266.429 363.45 265.951 362.327 265.951 361.156C265.951 359.985 266.429 358.862 267.28 358.034C268.131 357.206 269.284 356.741 270.487 356.741H333.253C334.456 356.741 335.609 357.206 336.46 358.034C337.311 358.862 337.788 359.985 337.788 361.156C337.788 362.327 337.311 363.45 336.46 364.279C335.609 365.107 334.456 365.572 333.253 365.572Z" fill="#E6E6E6"/>
<path d="M333.253 386.28H270.487C269.892 386.28 269.302 386.166 268.752 385.944C268.201 385.722 267.701 385.397 267.28 384.987C266.859 384.577 266.525 384.09 266.297 383.554C266.069 383.019 265.952 382.444 265.952 381.865C265.952 381.285 266.069 380.711 266.297 380.175C266.525 379.639 266.859 379.152 267.28 378.742C267.701 378.332 268.201 378.007 268.752 377.785C269.302 377.563 269.892 377.449 270.487 377.449H333.253C333.848 377.449 334.438 377.563 334.988 377.785C335.539 378.007 336.039 378.332 336.46 378.742C336.881 379.152 337.215 379.639 337.443 380.175C337.671 380.711 337.788 381.285 337.788 381.865C337.788 382.444 337.671 383.019 337.443 383.554C337.215 384.09 336.881 384.577 336.46 384.987C336.039 385.397 335.539 385.722 334.988 385.944C334.438 386.166 333.848 386.28 333.253 386.28Z" fill="#E6E6E6"/>
<path d="M368.453 345.073H235.287C234.084 345.073 232.93 344.608 232.079 343.78C231.229 342.952 230.751 341.829 230.751 340.658C230.751 339.487 231.229 338.364 232.079 337.536C232.93 336.708 234.084 336.243 235.287 336.243H368.453C369.656 336.243 370.81 336.708 371.661 337.536C372.511 338.364 372.989 339.487 372.989 340.658C372.989 341.829 372.511 342.952 371.661 343.78C370.81 344.608 369.656 345.073 368.453 345.073Z" fill="#E6E6E6"/>
<path d="M394.102 428.678H371.312C369.267 428.678 367.305 427.887 365.858 426.479C364.412 425.071 363.599 423.161 363.599 421.17C363.599 419.179 364.412 417.269 365.858 415.861C367.305 414.453 369.267 413.662 371.312 413.662H394.102C396.148 413.662 398.109 414.453 399.556 415.861C401.002 417.269 401.815 419.179 401.815 421.17C401.815 423.161 401.002 425.071 399.556 426.479C398.109 427.887 396.148 428.678 394.102 428.678Z" fill="#050038"/>
<path d="M146.458 374.183C168.367 374.183 186.128 356.893 186.128 335.565C186.128 314.237 168.367 296.947 146.458 296.947C124.548 296.947 106.787 314.237 106.787 335.565C106.787 356.893 124.548 374.183 146.458 374.183Z" fill="#050038"/>
<path d="M610.68 570H40.0496C39.7717 569.999 39.5055 569.891 39.3093 569.699C39.1131 569.508 39.0029 569.248 39.0029 568.978C39.0029 568.707 39.1131 568.448 39.3093 568.256C39.5055 568.065 39.7717 567.957 40.0496 567.956H610.68C610.958 567.957 611.224 568.065 611.42 568.256C611.617 568.448 611.727 568.707 611.727 568.978C611.727 569.248 611.617 569.508 611.42 569.699C611.224 569.891 610.958 569.999 610.68 570Z" fill="#CACACA"/>
<path d="M253.927 226.004C254.753 226.004 255.422 225.353 255.422 224.549C255.422 223.745 254.753 223.093 253.927 223.093C253.102 223.093 252.432 223.745 252.432 224.549C252.432 225.353 253.102 226.004 253.927 226.004Z" fill="white"/>
</g>
<defs>
<clipPath id="clip0_1184_6308">
<rect width="642" height="514" fill="white" transform="translate(39 56)"/>
</clipPath>
</defs>
</svg>
