<svg width="720" height="626" viewBox="0 0 720 626" fill="none" xmlns="http://www.w3.org/2000/svg">
<rect width="720" height="626" fill="white"/>
<path d="M597.667 346.787C604.842 334.035 608.951 319.538 608.951 304.123C608.951 264.944 582.659 231.594 545.728 218.451C545.728 218.41 545.735 218.369 545.735 218.321C545.735 149.692 486.299 94.0566 412.98 94.0566C351.13 94.0566 299.311 133.709 284.569 187.296C275.239 184.427 265.295 182.817 254.94 182.817C206.314 182.817 166.292 217.096 160.811 261.234C127.913 267.749 103.221 295.064 103.221 327.792C103.221 365.374 135.771 395.842 175.92 395.842C177.038 395.842 178.145 395.771 179.245 395.712C179.219 396.748 179.08 397.759 179.08 398.801C179.08 465.797 237.1 520.107 308.674 520.107C349.366 520.107 385.639 502.52 409.402 475.052C423.171 488.218 442.313 496.437 463.553 496.437C492.949 496.437 518.387 480.756 530.98 457.868C537.63 459.85 544.704 460.933 552.056 460.933C590.46 460.933 621.594 431.79 621.594 395.842C621.594 376.25 612.301 358.723 597.667 346.787Z" fill="#C7EDE6"/>
<path d="M270.143 484.602H207.528C205.783 484.602 204.367 483.277 204.367 481.644C204.367 480.01 205.783 478.685 207.528 478.685H270.143C271.888 478.685 273.304 480.01 273.304 481.644C273.304 483.277 271.895 484.602 270.143 484.602ZM289.709 484.602H283.387C281.642 484.602 280.226 483.277 280.226 481.644C280.226 480.01 281.642 478.685 283.387 478.685H289.709C291.454 478.685 292.87 480.01 292.87 481.644C292.87 483.277 291.46 484.602 289.709 484.602ZM321.26 496.437H264.422C262.678 496.437 261.262 495.112 261.262 493.478C261.262 491.845 262.678 490.52 264.422 490.52H321.26C323.005 490.52 324.421 491.845 324.421 493.478C324.421 495.112 323.005 496.437 321.26 496.437ZM251.779 496.437H245.458C243.713 496.437 242.297 495.112 242.297 493.478C242.297 491.845 243.713 490.52 245.458 490.52H251.779C253.524 490.52 254.94 491.845 254.94 493.478C254.94 495.112 253.53 496.437 251.779 496.437ZM232.814 496.437H220.171C218.426 496.437 217.01 495.112 217.01 493.478C217.01 491.845 218.426 490.52 220.171 490.52H232.814C234.559 490.52 235.975 491.845 235.975 493.478C235.975 495.112 234.565 496.437 232.814 496.437ZM270.744 508.272H258.101C256.356 508.272 254.94 506.946 254.94 505.313C254.94 503.68 256.356 502.354 258.101 502.354H270.744C272.489 502.354 273.905 503.68 273.905 505.313C273.905 506.946 272.489 508.272 270.744 508.272ZM289.709 455.015C288.59 455.015 284.506 455.015 283.387 455.015C281.642 455.015 280.226 456.341 280.226 457.974C280.226 459.607 281.642 460.933 283.387 460.933C284.506 460.933 288.59 460.933 289.709 460.933C291.454 460.933 292.87 459.607 292.87 457.974C292.87 456.341 291.454 455.015 289.709 455.015ZM289.709 466.85C288.59 466.85 259.22 466.85 258.101 466.85C256.356 466.85 254.94 468.176 254.94 469.809C254.94 471.442 256.356 472.768 258.101 472.768C259.22 472.768 288.59 472.768 289.709 472.768C291.454 472.768 292.87 471.442 292.87 469.809C292.87 468.176 291.454 466.85 289.709 466.85ZM321.317 478.685C320.198 478.685 303.471 478.685 302.352 478.685C300.607 478.685 299.191 480.01 299.191 481.644C299.191 483.277 300.607 484.602 302.352 484.602C303.471 484.602 320.198 484.602 321.317 484.602C323.062 484.602 324.478 483.277 324.478 481.644C324.478 480.01 323.062 478.685 321.317 478.685ZM571.021 259.742H507.805C506.06 259.742 504.644 258.417 504.644 256.784C504.644 255.15 506.06 253.825 507.805 253.825H571.021C572.766 253.825 574.182 255.15 574.182 256.784C574.182 258.417 572.766 259.742 571.021 259.742ZM596.308 259.742H583.664C581.92 259.742 580.504 258.417 580.504 256.784C580.504 255.15 581.92 253.825 583.664 253.825H596.308C598.052 253.825 599.469 255.15 599.469 256.784C599.469 258.417 598.052 259.742 596.308 259.742ZM627.916 271.577H564.7C562.955 271.577 561.539 270.252 561.539 268.618C561.539 266.985 562.955 265.66 564.7 265.66H627.916C629.661 265.66 631.077 266.985 631.077 268.618C631.077 270.252 629.667 271.577 627.916 271.577ZM552.056 271.577H545.735C543.99 271.577 542.574 270.252 542.574 268.618C542.574 266.985 543.99 265.66 545.735 265.66H552.056C553.801 265.66 555.217 266.985 555.217 268.618C555.217 270.252 553.801 271.577 552.056 271.577ZM532.301 271.577H520.448C518.703 271.577 517.287 270.252 517.287 268.618C517.287 266.985 518.703 265.66 520.448 265.66H532.301C534.046 265.66 535.462 266.985 535.462 268.618C535.462 270.252 534.046 271.577 532.301 271.577ZM589.986 247.908H558.378C556.633 247.908 555.217 246.582 555.217 244.949C555.217 243.316 556.633 241.99 558.378 241.99H589.986C591.731 241.99 593.147 243.316 593.147 244.949C593.147 246.582 591.737 247.908 589.986 247.908ZM571.021 283.412H558.378C556.633 283.412 555.217 282.086 555.217 280.453C555.217 278.82 556.633 277.494 558.378 277.494H571.021C572.766 277.494 574.182 278.82 574.182 280.453C574.182 282.086 572.766 283.412 571.021 283.412Z" fill="white"/>
<path d="M174.339 363.297C174.339 363.297 164.433 363.297 152.214 363.297C139.994 363.297 130.088 354.024 130.088 342.586C130.088 332.047 138.527 323.449 149.4 322.142C149.223 321.082 149.053 320.023 149.053 318.917C149.053 307.478 158.959 298.206 171.178 298.206C177.702 298.206 183.506 300.898 187.551 305.1C189.979 294.401 200.113 286.371 212.269 286.371C226.233 286.371 237.556 296.969 237.556 310.041C237.556 311.171 237.366 312.254 237.201 313.342C239.907 311.307 243.302 310.041 247.038 310.041C254.801 310.041 261.23 315.289 262.558 322.201C263.689 322.035 264.821 321.875 266.003 321.875C278.223 321.875 288.128 331.148 288.128 342.586C288.128 354.024 278.223 363.297 266.003 363.297C253.783 363.297 218.591 363.297 218.591 363.297V366.256H174.339V363.297Z" fill="#FDFCEF"/>
<path d="M163.276 336.669C164.149 336.669 164.857 336.006 164.857 335.189C164.857 327.952 158.567 322.064 150.835 322.064C150.62 322.118 146.176 322.059 142.971 322.869C142.131 323.082 141.631 323.893 141.859 324.68C142.086 325.473 142.952 325.94 143.793 325.721C146.6 325.011 150.747 325.011 150.829 325.023C156.822 325.023 161.696 329.585 161.696 335.189C161.696 336.006 162.404 336.669 163.276 336.669ZM205.947 360.338C204.202 360.338 202.787 361.663 202.787 363.297C202.787 364.931 204.202 366.255 205.947 366.255C207.693 366.255 209.108 364.931 209.108 363.297C209.108 361.663 207.693 360.338 205.947 360.338Z" fill="#472B29"/>
<path d="M152.213 366.255H174.339C176.084 366.255 177.5 364.93 177.5 363.297C177.5 361.663 176.084 360.338 174.339 360.338H152.213C141.758 360.338 133.249 352.373 133.249 342.586C133.249 333.733 140.36 326.207 149.799 325.076C150.646 324.97 151.411 324.556 151.923 323.916C152.435 323.277 152.65 322.473 152.517 321.686C152.372 320.774 152.213 319.863 152.213 318.916C152.213 309.129 160.722 301.164 171.178 301.164C176.552 301.164 181.533 303.265 185.206 307.082C185.996 307.904 187.235 308.253 188.367 307.957C189.517 307.667 190.396 306.803 190.643 305.715C192.798 296.223 201.895 289.329 212.269 289.329C224.47 289.329 234.395 298.62 234.395 310.04C234.395 310.886 234.262 311.697 234.135 312.514C233.952 313.715 234.534 315.106 235.665 315.709C236.797 316.313 238.169 316.407 239.18 315.65C241.487 313.916 244.199 312.999 247.038 312.999C253.145 312.999 258.366 317.088 259.447 322.727C259.751 324.307 261.318 325.366 263.044 325.124C264.018 324.982 264.991 324.834 266.003 324.834C276.459 324.834 284.968 332.798 284.968 342.586C284.968 352.373 276.459 360.338 266.003 360.338H218.591C216.846 360.338 215.43 361.663 215.43 363.297C215.43 364.93 216.846 366.255 218.591 366.255H266.003C279.948 366.255 291.289 355.639 291.289 342.586C291.289 329.532 279.948 318.916 266.003 318.916C265.63 318.916 265.269 318.928 264.903 318.952C262.286 311.934 255.186 307.082 247.038 307.082C244.832 307.082 242.682 307.443 240.647 308.147C239.604 294.341 227.276 283.412 212.269 283.412C200.694 283.412 190.358 290.081 186.015 299.827C181.717 296.88 176.52 295.247 171.178 295.247C157.233 295.247 145.892 305.863 145.892 318.916C145.892 319.2 145.898 319.478 145.917 319.757C134.899 322.408 126.927 331.751 126.927 342.586C126.927 355.639 138.268 366.255 152.213 366.255Z" fill="#472B29"/>
<path d="M186.982 360.338C187.987 360.338 192.299 360.338 193.304 360.338C195.049 360.338 196.465 361.663 196.465 363.297C196.465 364.93 195.049 366.255 193.304 366.255C192.299 366.255 187.987 366.255 186.982 366.255C185.238 366.255 183.822 364.93 183.822 363.297C183.822 361.663 185.238 360.338 186.982 360.338Z" fill="#472B29"/>
<path d="M313.137 265.039C312.138 262.986 288.881 214.393 306.55 181.35C313.864 167.663 327.139 158.704 345.996 154.71C356.863 147.698 369.892 143.846 382.769 143.846C393.573 143.846 404.061 146.461 413.948 151.621C438.494 164.432 453.584 189.753 456.694 199.333C468.32 235.056 450.303 264.092 449.532 265.311L443.59 274.702L443.659 263.785C443.659 263.489 443.754 235.831 436.737 218.132C427.76 222.825 416.862 225.292 404.971 225.292C384.445 225.292 361.744 218.274 339.207 204.99C319.186 219.712 319.18 263.329 319.18 263.785L319.256 277.584L313.137 265.039Z" fill="#BE7841"/>
<path d="M382.763 146.804C392.321 146.804 402.417 148.994 412.412 154.207C436.567 166.817 450.891 191.646 453.673 200.196C465.02 235.079 446.814 263.808 446.814 263.808C446.814 263.808 447.035 231.961 438.254 213.812C429.196 219.41 417.836 222.333 404.965 222.333C385.513 222.333 362.622 215.653 339.093 201.421C315.741 215.966 316.019 263.808 316.019 263.808C316.019 263.808 271.793 172.917 347.305 157.461C356.895 151.142 369.304 146.804 382.763 146.804ZM382.763 140.887C369.45 140.887 355.991 144.81 344.707 151.952C325.192 156.213 311.405 165.651 303.718 180.024C285.379 214.321 309.23 264.163 310.254 266.27L322.455 291.348L322.328 263.79C322.272 252.163 325.357 221.174 339.504 208.67C361.896 221.499 384.445 228.263 404.958 228.263C415.958 228.263 426.167 226.233 434.917 222.351C440.581 239.476 440.486 263.512 440.486 263.779L440.334 285.626L452.244 266.832C453.047 265.566 471.734 235.434 459.71 198.475C456.341 188.119 441.099 162.408 415.484 149.041C405.129 143.632 394.117 140.887 382.763 140.887Z" fill="#472B29"/>
<path d="M475.463 397.044C471.222 394.239 416.824 376.386 416.824 376.386C413.366 375.516 411.444 372.865 410.825 369.907C409.08 361.528 409.289 341.373 409.333 337.775C409.339 337.491 409.061 337.278 408.72 337.278H406.665H356.225H354.17C353.829 337.278 353.557 337.497 353.557 337.775C353.595 341.338 353.772 361.084 352.065 369.907C351.49 372.877 349.524 375.516 346.066 376.386L301.6 390.866C297.149 392.02 292.87 393.671 289.115 395.973C269.486 407.991 268.923 427.66 268.108 431.323C268.038 431.637 268.329 431.921 268.708 431.921H381.442H494.175C494.561 431.921 494.845 431.637 494.776 431.323C493.998 427.761 493.708 409.121 475.463 397.044Z" fill="#FABF82"/>
<path d="M408.726 337.272C409.067 337.272 409.339 337.485 409.339 337.769C409.295 341.367 409.086 361.521 410.831 369.9C411.451 372.865 413.372 375.51 416.83 376.38C416.83 376.38 471.228 394.226 475.47 397.037C493.714 409.121 494.005 427.76 494.795 431.311C494.864 431.624 494.574 431.908 494.194 431.908H381.454H268.721C268.335 431.908 268.051 431.624 268.12 431.311C268.936 427.648 269.498 407.978 289.127 395.96C292.882 393.658 297.162 392.013 301.612 390.854L346.079 376.374C349.537 375.504 351.503 372.865 352.078 369.894C353.785 361.072 353.608 341.325 353.57 337.763C353.563 337.479 353.842 337.266 354.177 337.266H356.231H406.671L408.726 337.272ZM408.726 331.354H406.671H356.231H354.177C352.318 331.354 350.51 332.059 349.214 333.284C347.925 334.508 347.223 336.124 347.242 337.84C347.368 348.71 347.065 362.575 345.851 368.847C345.554 370.385 344.707 370.598 344.429 370.669L344.207 370.723L343.992 370.794L299.71 385.214C294.387 386.611 289.658 388.564 285.657 391.013C265.813 403.162 263.044 422.399 262.134 428.719C262.045 429.322 261.988 429.796 261.919 430.109C261.502 431.997 262.007 433.938 263.31 435.435C264.631 436.956 266.597 437.826 268.708 437.826H381.442H494.175C496.287 437.826 498.253 436.956 499.574 435.435C500.876 433.938 501.382 431.997 500.965 430.109C500.895 429.784 500.838 429.299 500.75 428.683C499.84 422.026 497.431 404.351 479.098 392.209C474.781 389.351 439.531 377.569 418.904 370.8L418.682 370.729L418.455 370.669C418.183 370.598 417.355 370.391 417.02 368.77C415.787 362.853 415.503 348.911 415.648 337.84C415.667 336.124 414.972 334.503 413.676 333.284C412.392 332.059 410.584 331.354 408.726 331.354Z" fill="#472B29"/>
<path d="M467.662 274.649C468.63 271.542 469.445 268.489 470.596 265.459C472.094 261.495 471.032 258.95 466.341 256.494C466.126 256.382 465.949 256.252 465.766 256.122C465.014 256.009 464.293 255.92 463.686 255.849C459.463 255.382 451.96 255.175 449.779 251.056C447.307 246.388 448.533 241.429 449.172 236.5C449.873 231.073 447.699 225.848 447.68 220.44C447.288 219.907 447.01 219.28 446.927 218.529C446.061 210.546 443.577 202.913 440.258 195.534C428.582 181.042 406.773 171.267 381.821 171.267C344.606 171.267 314.325 192.995 314.325 219.7C314.325 220.967 314.414 222.215 314.553 223.452C314.186 228.28 313.699 232.582 313.933 237.867C314.142 242.541 313.415 246.015 313.895 252.187C314.167 255.666 312.473 253.423 306.537 253.696C305.778 253.696 305.045 253.701 304.324 253.749C297.813 254.157 292.547 258.08 291.422 262.938C292.218 263.4 292.857 264.134 293.148 265.223C295.518 274.241 295.19 284.673 299.988 293.052C302.668 297.733 306.853 298.383 311.152 301.401C313.535 303.076 313.99 304.964 314.641 307.467C317.056 316.727 323.751 324.603 331.096 331.325C334.814 334.728 338.802 337.787 342.829 340.882C346.173 343.45 349.676 346.421 353.816 347.947C355.201 348.456 356.06 349.373 356.478 350.403C359.221 351.782 363.103 353.723 363.103 353.687C376.359 358.675 389.072 359.102 402.486 353.445C402.486 353.492 402.486 353.539 402.486 353.587C402.556 353.545 409.017 350.622 411.659 349.255C411.868 348.989 412.108 348.722 412.424 348.474C416.489 345.255 420.99 342.568 425.175 339.491C428.614 336.959 431.433 334.16 434.095 331.118C433.481 329.799 434.841 330.935 436.105 329.556C442.054 323.088 447.642 312.899 448.609 304.603C448.66 304.177 448.988 303.869 449.229 303.561C448.457 301.259 450.366 300.005 453.881 299.916C457.055 299.839 458.945 296.472 461.379 294.851C463.193 288.33 465.652 281.087 467.662 274.649Z" fill="#FDDBBC"/>
<path opacity="0.8" d="M451.568 269.205C451.644 268.151 451.663 267.092 451.536 266.045L459.957 267.572L456.903 281.88L453.508 281.3L455.917 269.992L451.568 269.205Z" fill="#8E7469"/>
<path d="M462.94 253.891C460.045 253.204 456.973 253.139 453.717 252.76C453.717 252.435 452.889 253.109 452.889 252.784C450.834 252.595 449.747 250.322 449.715 247.949C449.659 243.162 449.02 237.914 449.475 232.896C449.608 228.369 448.742 225.475 447.813 222.268C447.958 220.954 448.047 219.629 448.047 218.286C448.047 190.835 417.766 168.503 380.551 168.503C343.335 168.503 313.055 190.835 313.055 218.286C313.055 219.588 313.143 220.872 313.282 222.144C312.916 227.109 312.429 231.529 312.663 236.955C312.871 241.76 312.144 245.328 312.625 251.672C312.897 255.246 311.202 252.944 305.266 253.222C304.508 253.222 303.774 253.228 303.054 253.275C294.981 253.796 288.811 259.867 290.094 266.435C291.58 274.045 293.356 281.613 295.367 289.128C297.358 296.561 301.284 302.65 310.804 303.514C312.031 313.183 314.218 318.094 320.729 325.716C329.573 336.071 340.061 344.9 352.735 351.338C354.05 352.006 361.839 356.042 361.839 355.989C375.095 361.119 387.808 361.551 401.222 355.74C401.222 355.788 401.222 355.835 401.222 355.888C401.304 355.841 409.668 351.947 411.248 350.953C417.608 346.953 424.094 342.953 429.689 338.172C440.783 328.692 451.252 318.644 452.345 303.484C461.752 302.691 465.652 296.691 467.663 289.43C469.629 282.318 471.057 275.081 472.644 267.885C474.161 260.985 470.583 255.695 462.94 253.891ZM310.779 298.294C306.063 298.407 302.94 296.667 301.29 291.732C299.027 284.969 295.651 270.856 295.613 270.731C292.048 260.441 298.78 255.873 310.779 258.033V264.009C310.722 264.009 310.659 268.974 310.785 268.998L310.779 298.294ZM447.13 305.354C447.105 308.023 446.631 311.035 445.202 313.301C432.047 334.148 413.531 349.308 386.999 355.326C377.794 357.415 369.172 354.415 361.162 350.823C344.391 343.296 330.97 332.248 320.716 318.183C317.36 313.573 315.558 308.626 315.817 302.963C316.159 295.484 315.899 287.98 315.899 280.483C315.899 279.56 315.975 278.637 315.887 277.726C313.914 257.151 318.485 219.037 318.485 218.286C318.485 193.51 346.325 173.355 380.551 173.355C414.776 173.355 443.735 193.51 443.735 218.286C443.735 218.795 443.95 219.392 443.931 219.895C446.277 221.996 444.544 242.02 446.978 252.121C447.25 253.263 447.206 254.476 447.206 255.654C447.225 272.223 447.301 288.791 447.13 305.354ZM468.219 266.169C466.474 274.797 464.35 283.383 461.765 291.839C460.304 296.614 457.554 298.052 452.333 298.513V269.063C452.345 269.057 452.364 269.057 452.364 269.057C452.358 268.962 452.339 268.879 452.339 268.779V262.559C452.301 262.542 452.263 262.524 452.225 262.506V257.542C455.032 257.542 457.643 257.382 460.228 257.577C465.45 257.974 469.154 261.524 468.219 266.169Z" fill="#472B29"/>
<path opacity="0.8" d="M311.999 271.773C311.917 270.666 311.904 269.554 312.03 268.453L303.187 270.057L306.392 285.099L309.963 284.489L307.428 272.601L311.999 271.773Z" fill="#8E7469"/>
<path d="M381.138 298.17C385.608 298.17 389.944 296.342 392.739 293.282C393.017 292.975 392.979 292.513 392.656 292.247C392.328 291.986 391.835 292.016 391.55 292.318C389.274 294.75 385.481 296.146 381.145 296.146C376.802 296.146 373.009 294.75 370.733 292.318C370.575 292.152 370.36 292.069 370.139 292.069C369.955 292.069 369.772 292.129 369.627 292.247C369.298 292.513 369.26 292.975 369.545 293.282C372.332 296.342 376.669 298.17 381.138 298.17Z" fill="#472B29"/>
<path d="M366.871 241.606L369.709 236.505C357.711 233.872 343.898 234.292 332.494 237.606L336.072 242.576C345.44 239.677 356.965 239.31 366.871 241.606ZM426.951 241.606L429.79 236.505C417.791 233.872 403.979 234.292 392.574 237.606L396.152 242.576C405.521 239.677 417.045 239.31 426.951 241.606Z" fill="#472B29"/>
<path d="M349.6 248.802C346.717 248.802 344.189 250.589 342.728 253.281C343.095 253.175 343.468 253.104 343.866 253.104C346.231 253.104 348.146 255.104 348.146 257.577C348.146 260.051 346.231 262.051 343.866 262.051C343.095 262.051 342.374 261.82 341.749 261.441C342.76 265.495 345.889 268.447 349.6 268.447C354.126 268.447 357.799 264.051 357.799 258.625C357.799 253.198 354.133 248.802 349.6 248.802ZM412.329 248.802C409.87 248.802 407.67 250.104 406.166 252.163C406.634 251.979 407.139 251.861 407.67 251.861C410.035 251.861 411.95 253.861 411.95 256.335C411.95 258.802 410.035 260.808 407.67 260.808C406.204 260.808 404.914 260.033 404.143 258.861C404.25 264.175 407.873 268.447 412.329 268.447C416.856 268.447 420.529 264.051 420.529 258.625C420.529 253.198 416.862 248.802 412.329 248.802Z" fill="#472B29"/>
<path d="M415.806 309.549C416.141 309.295 416.192 308.828 415.92 308.52C415.648 308.206 415.155 308.153 414.814 308.407C407.424 313.922 395.147 317.088 381.139 317.088C367.13 317.088 354.853 313.922 347.457 308.407C347.312 308.301 347.141 308.248 346.964 308.248C346.736 308.248 346.502 308.342 346.351 308.52C346.079 308.833 346.129 309.295 346.464 309.555C354.809 315.94 367.768 319.751 381.132 319.751C394.502 319.745 407.462 315.934 415.806 309.549Z" fill="#472B29"/>
<path d="M476.222 396.481C471.968 393.629 467.062 391.534 461.866 390.167L456.397 388.788C456.435 388.777 456.473 388.771 456.505 388.759L428.007 379.983C413.549 383.67 398.036 385.694 381.865 385.694C365.695 385.694 350.181 383.664 335.724 379.983L307.226 388.759C307.264 388.771 307.302 388.777 307.34 388.788L301.733 390.203C297.263 391.374 292.971 393.049 289.203 395.386C269.499 407.6 268.936 427.583 268.12 431.299C268.051 431.618 268.342 431.902 268.721 431.902H381.865H495.01C495.395 431.902 495.68 431.612 495.61 431.299C494.82 427.695 494.536 408.76 476.222 396.481Z" fill="#050038"/>
<path d="M381.322 387.179C366.093 387.179 348.253 384.859 332.373 380.818C331.533 380.605 331.033 379.788 331.261 379.001C331.488 378.214 332.348 377.758 333.202 377.96C348.822 381.936 366.365 384.22 381.322 384.22C387.195 384.22 393.124 383.942 398.959 383.398C399.863 383.309 400.603 383.918 400.685 384.729C400.773 385.54 400.141 386.268 399.269 386.344C393.339 386.895 387.302 387.179 381.322 387.179Z" fill="#472B29"/>
<path d="M410.591 384.919C409.832 384.919 409.162 384.404 409.036 383.676C408.897 382.871 409.478 382.108 410.338 381.978C411.526 381.8 412.721 381.599 413.897 381.386C414.978 381.197 416.059 380.995 417.14 380.782C417.981 380.658 418.828 381.132 419.005 381.936C419.176 382.735 418.626 383.516 417.772 383.682C416.685 383.889 415.585 384.09 414.479 384.291C413.271 384.504 412.057 384.706 410.844 384.901C410.761 384.913 410.673 384.919 410.591 384.919Z" fill="#472B29"/>
<path d="M268.721 432.802C268.544 432.802 268.361 432.755 268.203 432.66C267.766 432.388 267.64 431.838 267.931 431.429L298.433 387.741C298.717 387.333 299.311 387.209 299.748 387.481C300.184 387.753 300.31 388.304 300.019 388.712L269.518 432.4C269.334 432.654 269.031 432.802 268.721 432.802Z" fill="#472B29"/>
<path d="M278.115 434.27C277.938 434.27 277.755 434.222 277.597 434.128C277.16 433.855 277.034 433.305 277.325 432.897L311.386 384.114C311.67 383.7 312.264 383.581 312.701 383.854C313.137 384.126 313.263 384.676 312.973 385.084L278.912 433.867C278.728 434.122 278.425 434.27 278.115 434.27Z" fill="#472B29"/>
<path d="M289.734 432.803C289.557 432.803 289.374 432.755 289.216 432.661C288.78 432.388 288.653 431.838 288.944 431.43L323.005 382.647C323.289 382.239 323.884 382.12 324.32 382.387C324.756 382.659 324.882 383.209 324.592 383.617L290.531 432.4C290.347 432.655 290.044 432.803 289.734 432.803Z" fill="#472B29"/>
<path d="M299.229 434.27C299.052 434.27 298.869 434.222 298.711 434.128C298.275 433.855 298.148 433.305 298.439 432.897L332.5 384.114C332.791 383.7 333.378 383.581 333.815 383.854C334.251 384.126 334.377 384.676 334.087 385.084L300.026 433.867C299.836 434.122 299.533 434.27 299.229 434.27Z" fill="#472B29"/>
<path d="M309.059 435.347C308.882 435.347 308.699 435.299 308.541 435.205C308.105 434.933 307.978 434.382 308.269 433.974L332.468 399.316C332.753 398.908 333.347 398.789 333.783 399.056C334.219 399.328 334.346 399.878 334.055 400.286L309.856 434.944C309.666 435.205 309.369 435.347 309.059 435.347Z" fill="#472B29"/>
<path d="M319.243 436.436C319.066 436.436 318.883 436.388 318.725 436.294C318.289 436.022 318.162 435.471 318.453 435.063L330.553 417.731C330.837 417.323 331.425 417.204 331.868 417.471C332.304 417.743 332.43 418.293 332.14 418.701L320.04 436.033C319.857 436.294 319.553 436.436 319.243 436.436Z" fill="#472B29"/>
<path d="M388.554 337.408C388.946 337.408 389.274 336.982 389.274 336.479C389.274 335.976 388.946 335.55 388.554 335.55H372.301C371.909 335.55 371.58 335.976 371.58 336.479C371.58 336.982 371.909 337.408 372.301 337.408H388.554Z" fill="#512C2B"/>
<path d="M412.412 154.58C388.339 142.011 363.71 147.023 347.293 157.84C271.787 173.291 316.013 264.181 316.013 264.181C316.013 264.181 315.735 216.339 339.087 201.794C378.193 225.44 415.503 228.245 438.254 214.185C447.035 232.334 446.814 264.181 446.814 264.181C446.814 264.181 465.02 235.452 453.673 200.57C450.891 192.019 436.567 167.184 412.412 154.58Z" fill="#BE7841"/>
<path d="M449.614 263.938L446.454 263.914C446.454 263.607 446.567 233.955 438.608 216.09C413.796 230.02 375.708 225.179 338.423 203.309C316.487 217.86 316.487 263.453 316.487 263.92L313.326 263.932C313.314 261.95 313.314 215.12 337.526 200.303C338.038 199.971 338.714 199.971 339.239 200.291C376.53 222.446 414.561 227.203 438.463 212.688C438.855 212.451 439.329 212.374 439.759 212.51C440.201 212.635 440.562 212.919 440.758 213.315C449.734 231.546 449.621 262.619 449.614 263.938Z" fill="#472B29"/>
<path d="M482.518 460.934H446.169C430.46 465.372 417.722 453.448 417.722 438.743C417.722 424.938 428.987 413.719 443.356 412.382C443.217 411.311 443.008 410.263 443.008 409.157C443.008 394.452 455.746 382.528 471.455 382.528C480.546 382.528 488.543 386.588 493.752 392.801C494.637 377.203 508.304 364.776 525.189 364.776C542.643 364.776 556.797 378.025 556.797 394.363C556.797 397.002 556.311 399.511 555.615 401.949C559.674 397.351 565.73 394.363 572.601 394.363C583.86 394.363 593.046 402.263 594.443 412.441C595.587 412.311 596.706 412.115 597.888 412.115C613.597 412.115 626.335 424.039 626.335 438.743C626.335 453.448 613.597 465.372 597.888 460.934H537.833H501.483V466.851H482.518V460.934Z" fill="#FDFCEF"/>
<path d="M523.609 360.338C542.782 360.338 558.378 374.936 558.378 392.883C558.378 392.978 558.378 393.067 558.378 393.162C562.184 391.061 566.533 389.925 571.021 389.925C582.596 389.925 592.584 397.387 595.41 407.706C595.707 407.689 596.004 407.677 596.308 407.677C615.898 407.677 631.386 424.447 627.239 443.459C624.205 457.371 610.24 466.851 595.069 466.851H502.273C500.529 466.851 499.113 465.525 499.113 463.892C499.113 462.259 500.529 460.933 502.273 460.933H595.315C607.453 460.933 618.623 453.347 621.05 442.216C624.369 427.009 611.979 413.594 596.308 413.594C595.568 413.594 594.854 413.695 594.139 413.784L593.248 413.896C593.115 413.914 592.989 413.92 592.856 413.92C591.301 413.92 589.935 412.825 589.727 411.334C588.519 402.499 580.478 395.842 571.021 395.842C565.426 395.842 560.129 398.215 556.475 402.351C555.856 403.049 554.952 403.428 554.035 403.428C553.542 403.428 553.049 403.322 552.594 403.097C551.272 402.464 550.609 401.049 550.988 399.706C551.999 396.156 552.265 393.38 551.917 390.54C550.4 377.954 539.533 367.409 526.049 366.35C509.923 365.078 496.179 376.575 495.332 391.475C495.263 392.706 494.384 393.765 493.126 394.138C492.81 394.233 492.488 394.28 492.165 394.28C491.217 394.28 490.294 393.872 489.687 393.144C484.807 387.339 477.594 384.007 469.875 384.007C455.93 384.007 444.589 394.623 444.589 407.677C444.589 408.369 444.696 409.038 444.791 409.706L444.911 410.541C445.012 411.334 444.772 412.127 444.241 412.748C443.71 413.369 442.932 413.766 442.092 413.843C427.223 415.227 416.54 428.216 419.941 442.631C422.52 453.596 433.684 460.933 445.682 460.933H483.309C485.053 460.933 486.469 462.259 486.469 463.892C486.469 465.525 485.053 466.851 483.309 466.851H445.771C430.175 466.851 416.009 456.767 413.436 442.364C410.515 426.015 421.932 411.476 438.286 408.399C438.273 408.162 438.267 407.919 438.267 407.677C438.267 391.363 452.446 378.09 469.875 378.09C477.309 378.09 484.371 380.552 489.997 384.978C493.777 370.752 507.457 360.338 523.609 360.338Z" fill="#472B29"/>
<path d="M534.672 403.239C543.541 403.239 551.165 409.151 553.087 417.092C555.407 415.778 558.055 415.074 560.748 415.074C568.347 415.074 574.643 420.382 575.623 427.311C576.906 427.045 578.127 426.909 579.321 426.909C588.987 426.909 597.091 434.01 597.768 443.075C597.825 443.892 597.174 444.596 596.301 444.655C596.263 444.655 596.225 444.655 596.188 444.655C595.366 444.655 594.67 444.057 594.613 443.282C594.051 435.761 587.337 429.861 579.321 429.861C577.874 429.861 576.35 430.11 574.656 430.613C574.517 430.654 574.372 430.672 574.232 430.672C573.885 430.672 573.537 430.554 573.246 430.353C572.842 430.075 572.602 429.589 572.602 429.116C572.602 422.997 567.285 418.021 560.748 418.021C557.923 418.021 555.154 419.015 552.967 420.82C552.669 421.062 552.296 421.193 551.923 421.193C551.721 421.193 551.525 421.157 551.336 421.08C550.779 420.873 550.4 420.388 550.356 419.826C549.711 412.18 542.827 406.186 534.684 406.186C533.369 406.186 531.998 406.387 530.373 406.819C530.228 406.861 530.076 406.878 529.931 406.878C529.241 406.878 528.622 406.446 528.42 405.801C528.179 405.014 528.666 404.198 529.507 403.973C531.403 403.476 533.053 403.239 534.672 403.239ZM446.909 412.115C455.291 412.115 462.763 417.423 465.077 425.027C465.317 425.814 464.83 426.631 463.99 426.855C463.844 426.897 463.699 426.915 463.56 426.915C462.871 426.915 462.239 426.489 462.043 425.838C460.115 419.5 453.894 415.08 446.915 415.08C446.175 415.08 445.461 415.163 444.753 415.252C444.677 415.263 444.608 415.269 444.532 415.269C443.767 415.269 443.084 414.725 442.977 413.985C442.856 413.175 443.463 412.429 444.329 412.322C445.17 412.21 446.03 412.115 446.909 412.115Z" fill="#472B29"/>
<path d="M292.484 226.014C288.16 226.014 284.651 222.564 284.651 218.321C284.651 214.079 288.166 210.629 292.484 210.629H296.795L297.035 206.593C298.009 172.468 321.386 142.419 355.194 131.821L358.216 130.875V126.484C358.216 120.679 363.052 115.951 368.994 115.951H393.75C399.692 115.951 404.528 120.679 404.528 126.484V130.875L407.55 131.821C441.364 142.419 464.736 172.468 465.709 206.593L465.829 210.629H470.14C474.585 210.629 478.099 214.079 478.099 218.321C478.099 222.564 474.585 226.014 470.267 226.014H292.484Z" fill="#F9E65C"/>
<path d="M393.75 120.093C397.252 120.093 400.103 122.963 400.103 126.489V127.898V133.857L406.14 135.75C438.191 145.798 460.348 174.314 461.278 206.705L461.632 214.765H470.248C472.126 214.765 473.655 216.356 473.655 218.315C473.655 220.274 472.126 221.866 470.248 221.866H292.484C290.606 221.866 289.077 220.274 289.077 218.315C289.077 216.356 290.606 214.765 292.61 214.765H301.227L301.461 206.705C302.39 174.314 324.547 145.798 356.598 135.75L362.635 133.857V127.898V126.484C362.635 122.957 365.486 120.087 368.988 120.087L393.75 120.093ZM393.75 111.809H368.988C360.593 111.809 353.785 118.377 353.785 126.484V127.892C318.991 138.803 293.666 169.71 292.61 206.48H292.484C285.713 206.486 280.226 211.788 280.226 218.321C280.226 224.854 285.713 230.156 292.484 230.156H470.254C477.031 230.156 482.518 224.854 482.518 218.321C482.518 211.788 477.031 206.486 470.261 206.486H470.134C469.079 169.716 443.748 138.803 408.96 127.898V126.484C408.96 118.377 402.151 111.809 393.75 111.809Z" fill="#472B29"/>
<path d="M362.983 147.313C361.238 147.313 359.822 145.987 359.822 144.354V117.726C359.822 116.093 361.238 114.768 362.983 114.768C364.728 114.768 366.144 116.093 366.144 117.726V144.354C366.144 145.987 364.728 147.313 362.983 147.313ZM399.762 147.313C398.017 147.313 396.601 145.987 396.601 144.354V120.685C396.601 119.052 398.017 117.726 399.762 117.726C401.507 117.726 402.923 119.052 402.923 120.685V144.354C402.923 145.987 401.513 147.313 399.762 147.313ZM399.762 170.982C398.017 170.982 396.601 169.657 396.601 168.024V156.189C396.601 154.556 398.017 153.23 399.762 153.23C401.507 153.23 402.923 154.556 402.923 156.189V168.024C402.923 169.657 401.513 170.982 399.762 170.982ZM362.983 170.982C361.238 170.982 359.822 169.657 359.822 168.024V156.189C359.822 154.556 361.238 153.23 362.983 153.23C364.728 153.23 366.144 154.556 366.144 156.189V168.024C366.144 169.657 364.728 170.982 362.983 170.982ZM369.115 210.925H301.682C300.81 210.925 300.102 210.262 300.102 209.445C300.102 208.629 300.81 207.966 301.682 207.966H369.115C369.987 207.966 370.695 208.629 370.695 209.445C370.695 210.262 369.981 210.925 369.115 210.925ZM430.416 210.925H399.762C398.89 210.925 398.182 210.262 398.182 209.445C398.182 208.629 398.89 207.966 399.762 207.966H430.416C431.288 207.966 431.996 208.629 431.996 209.445C431.996 210.262 431.288 210.925 430.416 210.925ZM467.195 210.925H442.673C441.801 210.925 441.093 210.262 441.093 209.445C441.093 208.629 441.801 207.966 442.673 207.966H467.195C468.067 207.966 468.775 208.629 468.775 209.445C468.775 210.262 468.067 210.925 467.195 210.925Z" fill="#472B29"/>
<path d="M387.504 210.925H381.372C380.5 210.925 379.792 210.262 379.792 209.445C379.792 208.629 380.5 207.966 381.372 207.966H387.504C388.377 207.966 389.085 208.629 389.085 209.445C389.085 210.262 388.37 210.925 387.504 210.925Z" fill="#472B29"/>
</svg>
